 <svg version="1.0" xmlns="http://www.w3.org/2000/svg" width="700.000000pt" height="700.000000pt" viewBox="0 0 700.000000 700.000000" preserveAspectRatio="xMidYMid meet">
<metadata>
Created by potrace 1.12, written by Peter Selinger 2001-2015
</metadata>
<g transform="translate(0.000000,700.000000) scale(0.100000,-0.100000)" fill="#ffffff" stroke="none">
<path d="M1940 6109 c-61 -14 -165 -54 -193 -74 -116 -82 -181 -158 -234 -276
l-38 -84 -3 -2372 c-2 -2106 -1 -2373 13 -2386 13 -14 20 -13 67 5 29 11 74
31 99 44 26 13 53 24 59 24 12 0 38 11 186 81 34 16 67 29 75 29 8 0 28 8 45
19 17 10 41 22 55 26 13 3 47 17 74 30 121 56 188 85 199 85 6 0 31 11 56 24
25 13 63 29 85 36 22 7 47 18 55 25 8 7 33 18 55 24 22 6 54 20 70 31 17 11
37 20 46 20 8 0 38 11 65 25 27 14 65 30 84 37 19 6 55 22 79 35 24 12 51 23
60 23 9 0 34 12 56 25 22 14 46 25 53 25 12 0 74 27 198 86 28 13 57 24 65 24
8 0 32 11 54 25 67 41 87 36 290 -61 28 -13 57 -24 65 -24 8 0 29 -8 45 -19
17 -10 48 -24 70 -31 22 -7 60 -24 84 -37 24 -12 51 -23 60 -23 9 0 34 -12 56
-25 22 -14 46 -25 53 -25 12 0 74 -27 198 -86 28 -13 57 -24 65 -24 8 0 32
-11 54 -25 22 -13 47 -25 56 -25 9 0 36 -11 60 -23 24 -13 62 -30 84 -37 22
-7 60 -24 84 -37 24 -12 51 -23 60 -23 9 0 26 -7 38 -15 12 -9 42 -22 65 -31
24 -8 61 -23 83 -34 102 -49 175 -80 187 -80 7 0 31 -11 53 -25 22 -13 47 -25
55 -25 9 0 34 -9 55 -20 22 -12 66 -31 98 -44 51 -21 59 -22 72 -9 13 13 15
308 15 2336 0 1391 -4 2351 -10 2394 -6 43 -20 92 -35 120 -14 26 -25 52 -25
56 0 19 -134 168 -164 184 -17 8 -39 23 -50 32 -19 17 -123 56 -191 71 -50 11
-3066 11 -3115 -1z"></path>
</g>
</svg>