 <svg version="1.0" xmlns="http://www.w3.org/2000/svg" width="700.000000pt" height="700.000000pt" viewBox="0 0 700.000000 700.000000" preserveAspectRatio="xMidYMid meet">
<metadata>
Created by potrace 1.12, written by Peter Selinger 2001-2015
</metadata>
<g transform="translate(0.000000,700.000000) scale(0.100000,-0.100000)" fill="#848484" stroke="none">
<path d="M1594 6327 c-12 -6 -40 -24 -62 -39 -78 -52 -72 178 -72 -2692 0
-1808 3 -2573 11 -2601 16 -60 71 -112 132 -125 61 -13 135 0 187 32 36 22 56
34 145 82 28 16 57 33 65 40 8 6 31 20 50 29 19 10 58 31 85 47 28 16 68 38
90 50 22 11 65 36 95 55 30 19 73 44 95 55 22 11 65 36 95 55 30 19 73 44 95
55 64 33 150 82 213 120 31 19 74 44 94 55 48 26 121 68 183 105 28 17 68 39
90 50 22 11 65 36 95 55 30 19 69 41 87 50 17 8 49 26 70 41 32 22 46 25 91
22 34 -3 60 -12 75 -25 12 -11 42 -30 67 -42 25 -12 86 -46 135 -76 50 -30
113 -66 140 -80 28 -14 75 -41 105 -60 30 -18 73 -43 95 -55 22 -11 61 -33 86
-48 114 -66 153 -88 189 -107 21 -11 46 -27 56 -36 11 -9 30 -20 44 -24 14 -4
32 -13 40 -20 16 -14 82 -53 140 -82 19 -9 42 -23 51 -31 9 -7 35 -23 57 -35
38 -21 63 -35 187 -107 28 -16 68 -37 90 -48 22 -11 46 -27 54 -36 7 -9 19
-16 26 -16 7 0 30 -12 51 -27 51 -34 137 -56 189 -49 57 9 96 36 133 92 l32
48 -2 2600 -3 2601 -28 36 c-15 20 -46 50 -69 65 l-41 29 -1906 2 c-1502 2
-1910 0 -1927 -10z m3561 -412 l25 -24 0 -2219 c0 -1712 -3 -2221 -12 -2230
-15 -15 -64 -16 -73 -2 -4 6 -27 22 -53 36 -26 13 -69 38 -97 54 -27 16 -68
38 -90 50 -22 11 -65 36 -95 55 -30 19 -73 44 -95 55 -22 11 -62 33 -90 50
-51 30 -106 62 -200 115 -30 17 -75 43 -102 58 -127 73 -151 87 -191 107 -23
12 -45 26 -48 31 -2 5 -24 18 -47 29 -23 11 -63 33 -88 48 -26 15 -70 41 -99
57 -29 17 -73 42 -99 57 -92 54 -114 61 -186 62 -48 0 -81 -5 -105 -18 -88
-44 -119 -62 -136 -78 -11 -9 -35 -23 -54 -32 -36 -17 -70 -36 -175 -100 -33
-19 -76 -43 -95 -52 -19 -9 -44 -24 -55 -34 -11 -10 -31 -21 -45 -25 -14 -4
-36 -17 -50 -27 -14 -11 -38 -26 -55 -34 -16 -7 -52 -27 -80 -43 -54 -32 -108
-63 -197 -114 -32 -17 -84 -47 -115 -66 -81 -48 -131 -76 -179 -99 -23 -11
-45 -25 -48 -31 -4 -6 -26 -20 -49 -31 -82 -40 -122 -63 -146 -81 -33 -27 -60
-24 -71 7 -7 17 -9 807 -8 2243 3 1862 5 2221 17 2234 12 16 139 17 1638 17
l1624 0 24 -25z"></path>
</g>
</svg>