 <svg version="1.0" xmlns="http://www.w3.org/2000/svg" width="700.000000pt" height="700.000000pt" viewBox="0 0 700.000000 700.000000" preserveAspectRatio="xMidYMid meet">
<metadata>
Created by potrace 1.12, written by Peter Selinger 2001-2015
</metadata>
<g transform="translate(0.000000,700.000000) scale(0.100000,-0.100000)" fill="#747473" stroke="none">
<path d="M4080 5979 c-25 -11 -67 -25 -95 -31 -32 -7 -83 -33 -148 -77 -54
-36 -110 -73 -123 -82 -14 -9 -32 -23 -42 -32 -52 -48 -99 -85 -118 -91 -12
-4 -29 -15 -39 -26 -10 -11 -24 -20 -30 -20 -7 0 -19 -7 -26 -16 -8 -9 -31
-28 -53 -43 -21 -14 -55 -37 -76 -51 -20 -14 -53 -36 -73 -48 -20 -13 -37 -28
-37 -33 0 -5 -15 -16 -32 -25 -29 -15 -53 -33 -117 -87 -8 -7 -29 -21 -47 -32
-68 -42 -110 -73 -123 -89 -7 -9 -18 -16 -23 -16 -6 0 -26 -13 -45 -30 -18
-16 -39 -30 -45 -30 -7 0 -21 -9 -33 -20 -11 -11 -36 -32 -55 -48 -34 -27 -55
-42 -130 -92 -21 -14 -75 -52 -120 -85 -45 -33 -92 -67 -105 -75 -29 -20 -67
-47 -116 -87 -23 -18 -46 -33 -51 -33 -6 0 -20 -9 -32 -20 -39 -38 -94 -80
-103 -80 -10 0 -55 -32 -113 -79 -74 -60 -111 -88 -141 -106 -48 -29 -69 -44
-166 -117 -20 -16 -39 -28 -44 -28 -4 0 -18 -9 -31 -20 -66 -56 -111 -90 -118
-90 -7 0 -56 -35 -110 -79 -54 -44 -121 -91 -128 -91 -5 0 -19 -11 -32 -25
-13 -14 -29 -25 -36 -25 -6 0 -18 -7 -25 -16 -8 -9 -29 -27 -49 -40 -52 -35
-99 -70 -150 -109 -25 -19 -62 -44 -83 -55 -20 -11 -37 -24 -37 -29 0 -4 -10
-12 -22 -18 -42 -20 -128 -106 -160 -162 -32 -55 -33 -59 -33 -176 0 -109 2
-123 22 -148 12 -15 24 -41 28 -57 3 -16 13 -34 21 -41 9 -7 24 -29 34 -48 10
-20 27 -45 39 -55 12 -11 21 -25 21 -32 0 -7 8 -19 18 -26 9 -7 37 -42 61 -78
24 -36 61 -85 81 -110 21 -25 45 -58 54 -75 9 -16 32 -50 51 -75 39 -50 77
-103 115 -160 38 -57 76 -111 109 -155 29 -38 51 -68 106 -145 14 -19 41 -55
60 -80 19 -25 43 -60 52 -77 9 -18 20 -33 25 -33 4 0 17 -17 28 -38 11 -20 36
-57 55 -82 19 -25 47 -62 62 -84 16 -21 35 -48 43 -60 34 -48 76 -103 93 -121
36 -39 77 -98 77 -110 0 -7 13 -30 30 -51 16 -22 42 -56 57 -77 114 -155 190
-231 243 -242 19 -4 51 -17 70 -29 29 -17 50 -21 123 -20 67 1 91 5 106 18 10
9 36 22 57 28 21 5 48 18 59 29 42 38 107 89 115 89 7 0 65 43 99 72 8 7 29
22 47 33 39 24 95 64 149 104 22 17 56 41 75 54 19 14 41 32 49 41 7 9 19 16
26 16 6 0 20 9 31 21 10 12 35 30 54 40 19 11 53 33 75 50 22 16 56 41 75 55
19 13 53 38 75 55 36 26 62 45 139 99 12 8 38 27 57 43 20 15 41 27 48 27 6 0
14 7 18 15 3 9 23 25 44 36 22 11 39 23 39 27 0 5 15 16 33 25 32 17 51 31
163 117 33 25 70 53 84 62 14 10 43 31 65 47 22 16 69 50 105 76 36 25 83 59
105 76 22 16 72 50 110 76 39 26 82 59 96 73 14 14 52 42 85 63 32 20 79 53
104 72 25 19 59 42 75 51 17 9 36 25 43 35 7 11 18 19 24 19 6 0 26 12 44 28
19 15 49 39 68 54 18 16 39 28 45 28 6 0 19 8 29 18 25 24 85 69 167 124 39
26 88 61 110 78 22 16 56 41 75 54 19 14 53 39 75 55 51 39 110 81 144 103 80
53 181 151 212 207 97 176 100 183 111 326 12 144 7 190 -23 229 -24 31 -58
33 -90 7 -22 -18 -24 -29 -30 -138 -4 -79 -11 -128 -22 -149 -9 -18 -21 -53
-27 -79 -6 -27 -22 -61 -35 -77 -14 -16 -25 -35 -25 -41 0 -22 -95 -103 -250
-212 -19 -13 -51 -36 -70 -50 -36 -26 -79 -57 -140 -100 -19 -14 -55 -41 -80
-60 -25 -19 -62 -44 -82 -55 -21 -11 -38 -24 -38 -29 0 -5 -13 -14 -29 -21
-16 -6 -32 -18 -35 -25 -3 -8 -20 -22 -38 -31 -18 -9 -46 -27 -63 -40 -16 -13
-41 -33 -55 -44 -49 -38 -95 -70 -116 -79 -12 -5 -33 -20 -47 -33 -13 -13 -41
-34 -61 -48 -21 -14 -55 -38 -76 -55 -21 -16 -55 -41 -75 -55 -19 -14 -69 -50
-110 -80 -41 -30 -91 -66 -110 -80 -20 -14 -54 -40 -77 -57 -22 -18 -44 -33
-50 -33 -6 0 -25 -12 -42 -27 -18 -16 -68 -53 -111 -83 -42 -30 -92 -67 -110
-82 -18 -16 -37 -28 -43 -28 -5 0 -16 -7 -23 -16 -8 -9 -30 -27 -49 -40 -19
-13 -52 -36 -74 -51 -21 -16 -55 -39 -76 -53 -21 -14 -55 -37 -76 -51 -22 -15
-45 -34 -53 -43 -7 -9 -18 -16 -23 -16 -6 0 -25 -12 -43 -27 -18 -16 -50 -39
-70 -53 -20 -14 -54 -38 -74 -55 -37 -31 -54 -42 -105 -73 -16 -9 -38 -27 -49
-40 -11 -12 -26 -22 -34 -22 -7 0 -22 -13 -34 -30 -12 -16 -34 -34 -48 -39
-14 -6 -46 -27 -71 -46 -25 -19 -61 -44 -80 -55 -19 -11 -55 -36 -80 -55 -25
-20 -57 -43 -72 -53 -16 -9 -28 -20 -28 -24 0 -4 -18 -17 -40 -28 -23 -12 -50
-30 -60 -40 -11 -11 -26 -20 -34 -20 -7 0 -21 -11 -29 -24 -12 -18 -31 -26
-80 -35 -99 -17 -152 -2 -218 62 -58 56 -109 117 -109 131 0 8 -14 26 -81 106
-19 23 -45 62 -75 112 -6 10 -18 26 -27 35 -18 21 -87 123 -87 130 0 2 -22 30
-49 61 -27 31 -56 71 -65 87 -22 39 -64 97 -79 110 -7 6 -34 42 -60 80 -26 39
-63 90 -82 115 -19 25 -51 70 -72 100 -20 30 -45 65 -56 77 -11 12 -25 31 -31
42 -6 11 -32 47 -58 80 -27 34 -48 64 -48 67 0 4 -13 22 -30 41 -16 18 -30 40
-30 47 0 13 -40 70 -78 111 -10 11 -27 33 -38 49 -10 16 -30 45 -44 66 -14 20
-36 53 -48 73 -13 20 -28 37 -32 37 -5 0 -30 33 -57 73 -26 39 -53 77 -60 82
-13 11 -43 111 -49 165 -10 77 68 168 239 280 37 24 67 47 67 50 0 6 35 31
115 82 11 7 34 24 52 38 17 14 48 36 68 50 19 14 51 36 70 50 19 14 50 36 70
50 20 14 54 40 77 58 22 17 44 32 48 32 5 0 32 20 62 43 29 24 67 52 83 61 34
19 89 57 125 86 58 48 87 68 118 84 17 9 32 20 32 25 0 4 11 13 24 19 13 6 35
20 47 32 46 42 111 90 121 90 6 0 36 22 67 49 31 26 71 56 89 65 17 9 32 20
32 25 0 4 12 13 28 20 15 7 34 19 42 27 22 21 80 61 118 81 17 9 32 20 32 25
0 4 17 19 38 33 20 13 55 38 77 54 22 17 52 37 67 46 15 8 38 25 51 38 22 21
57 43 120 78 16 8 34 23 39 32 5 9 14 17 20 17 6 0 28 15 49 33 78 66 107 87
117 87 6 0 17 8 24 18 7 10 25 25 39 33 52 29 129 82 129 90 0 4 10 11 23 14
12 4 34 19 48 34 14 14 41 35 59 46 53 31 108 70 165 118 18 15 36 27 40 27 4
0 23 12 41 28 89 72 102 82 108 82 3 0 38 25 78 55 39 30 76 55 82 55 5 0 20
10 32 21 17 16 52 26 136 40 62 10 124 17 138 14 14 -3 68 -10 120 -15 62 -7
106 -18 129 -31 20 -12 62 -25 95 -30 33 -6 74 -19 91 -29 17 -10 55 -22 85
-26 30 -4 76 -17 102 -30 26 -13 62 -24 79 -24 18 0 55 -11 83 -24 28 -13 74
-27 101 -31 28 -4 67 -16 89 -27 21 -11 65 -24 97 -29 33 -5 74 -18 91 -29 18
-11 53 -22 78 -26 132 -18 300 -150 300 -236 0 -18 7 -60 15 -93 8 -33 14 -87
15 -119 0 -79 31 -146 67 -146 13 0 40 12 60 27 l35 27 -4 140 c-3 108 -8 149
-21 173 -9 18 -22 55 -28 83 -10 45 -21 62 -88 130 -42 42 -97 88 -120 101
-24 13 -53 30 -65 36 -11 7 -35 13 -51 13 -17 0 -50 11 -75 24 -25 13 -66 26
-93 29 -26 4 -65 16 -88 27 -22 12 -64 24 -92 27 -29 3 -72 16 -97 28 -25 12
-66 25 -91 28 -26 4 -62 15 -80 26 -19 10 -59 22 -89 26 -30 4 -73 18 -96 31
-25 15 -57 24 -83 24 -23 0 -60 9 -82 21 -23 11 -68 25 -102 31 -34 6 -81 22
-106 34 -40 22 -56 24 -185 24 -120 0 -148 -3 -186 -21z"></path>
<path d="M4779 5182 c-39 -5 -65 -15 -88 -34 -18 -16 -38 -28 -45 -28 -20 0
-127 -110 -145 -149 -9 -20 -25 -49 -36 -65 -17 -26 -19 -46 -18 -170 1 -139
1 -142 35 -206 18 -36 42 -75 53 -88 51 -57 93 -94 130 -113 22 -11 54 -27 70
-36 44 -25 296 -25 340 -1 17 10 48 26 70 36 83 39 185 181 210 289 17 76 45
123 73 123 29 0 106 -31 127 -50 11 -10 31 -21 45 -25 14 -4 39 -19 57 -34 17
-14 53 -42 78 -61 49 -37 201 -201 241 -260 13 -19 40 -55 59 -80 19 -25 42
-61 50 -80 9 -19 24 -44 34 -55 10 -11 21 -33 25 -49 4 -15 15 -40 26 -55 10
-14 21 -44 25 -66 4 -22 15 -54 26 -72 12 -18 23 -64 29 -110 5 -43 16 -105
24 -138 20 -74 20 -197 0 -250 -8 -22 -17 -66 -21 -99 -4 -38 -14 -67 -28 -85
-12 -14 -25 -36 -29 -47 -8 -27 -109 -120 -168 -156 -44 -27 -50 -28 -187 -28
-132 0 -145 2 -189 25 -52 28 -151 35 -170 13 -39 -50 -20 -103 51 -140 96
-51 344 -83 421 -55 22 8 65 18 95 21 33 3 62 13 75 25 12 10 35 26 51 34 44
23 155 144 155 169 0 6 11 23 24 38 13 16 27 49 30 75 4 25 17 63 29 83 20 34
21 49 22 267 0 216 -1 232 -21 270 -12 22 -25 67 -29 100 -4 33 -18 78 -30
100 -13 22 -26 56 -29 76 -4 21 -13 42 -21 49 -8 6 -19 28 -26 48 -7 20 -22
50 -35 65 -13 16 -24 34 -24 41 0 7 -13 31 -30 52 -16 22 -41 55 -55 74 -32
43 -79 106 -108 144 -28 36 -159 166 -168 166 -4 0 -40 27 -79 60 -39 33 -78
60 -85 60 -7 0 -24 9 -38 20 -14 12 -41 26 -59 32 -17 6 -47 21 -64 33 -18 12
-54 25 -81 29 -81 11 -136 44 -207 128 -35 41 -77 80 -93 87 -15 6 -39 20 -53
31 -21 16 -44 20 -145 24 -66 2 -145 1 -176 -2z m196 -142 c38 -8 60 -29 87
-79 16 -30 -4 -46 -71 -54 -50 -6 -94 -33 -168 -104 -56 -53 -68 -112 -32
-157 32 -40 65 -34 134 24 33 27 74 61 91 75 37 30 137 45 172 26 19 -10 22
-20 22 -75 0 -51 -5 -70 -26 -102 -39 -59 -99 -113 -162 -147 -48 -26 -67 -30
-121 -29 -42 1 -73 8 -90 19 -14 10 -42 25 -61 34 -40 18 -120 101 -120 124 0
9 -9 33 -20 55 -25 49 -26 105 -2 150 11 19 22 47 26 63 10 42 70 102 140 140
88 49 123 55 201 37z"></path>
</g>
</svg>