 <svg version="1.0" xmlns="http://www.w3.org/2000/svg" width="700.000000pt" height="700.000000pt" viewBox="0 0 700.000000 700.000000" preserveAspectRatio="xMidYMid meet">
<metadata>
Created by potrace 1.12, written by Peter Selinger 2001-2015
</metadata>
<g transform="translate(0.000000,700.000000) scale(0.100000,-0.100000)" fill="#BFBFBF" stroke="none">
<path d="M1833 3776 c-53 -13 -96 -44 -149 -105 -40 -46 -56 -134 -43 -230 10
-74 22 -96 86 -156 51 -50 110 -70 198 -70 94 1 143 20 201 79 58 59 99 160
91 225 -14 109 -99 226 -183 251 -62 18 -145 21 -201 6z"></path>
<path d="M3408 3775 c-137 -37 -218 -181 -189 -333 23 -120 102 -200 216 -222
221 -42 387 124 345 345 -31 165 -196 259 -372 210z"></path>
<path d="M4970 3770 c-77 -26 -139 -93 -169 -184 -26 -77 -24 -113 8 -195 21
-56 77 -123 121 -146 14 -7 51 -18 83 -25 80 -18 183 1 237 44 95 76 116 130
108 276 -4 65 -9 86 -32 118 -79 114 -220 158 -356 112z"></path>
</g>
</svg>