 <svg version="1.0" xmlns="http://www.w3.org/2000/svg" width="700.000000pt" height="700.000000pt" viewBox="0 0 700.000000 700.000000" preserveAspectRatio="xMidYMid meet">
<metadata>
Created by potrace 1.12, written by Peter Selinger 2001-2015
</metadata>
<g transform="translate(0.000000,700.000000) scale(0.100000,-0.100000)" fill="#ffffff" stroke="none">
<path d="M5028 6976 c-10 -13 -36 -28 -60 -34 -67 -17 177 222 -2867 -2816
-1883 -1881 -1745 -1733 -1763 -1890 -5 -45 -20 -137 -33 -206 -13 -69 -27
-156 -30 -195 -4 -38 -15 -106 -25 -150 -11 -45 -23 -123 -29 -176 -5 -52 -16
-121 -25 -154 -8 -33 -22 -119 -30 -191 -9 -72 -20 -144 -26 -160 -7 -16 -18
-85 -26 -154 -8 -69 -21 -151 -30 -182 -8 -32 -19 -103 -24 -159 -12 -120 -25
-175 -45 -183 -20 -7 -22 -226 -2 -226 15 0 97 -75 97 -90 0 -6 36 -10 94 -10
75 0 95 3 100 15 9 23 44 33 167 44 63 6 135 18 161 26 26 7 94 19 150 25 57
6 138 20 180 30 42 11 130 24 194 30 65 6 143 17 174 25 30 8 104 21 164 30
59 8 111 17 116 20 14 8 98 23 204 34 55 7 122 18 150 26 28 8 103 21 167 29
64 8 149 24 190 37 l74 22 1415 1413 c778 777 1798 1795 2266 2261 753 750
853 853 865 892 7 24 23 50 36 58 22 15 23 21 23 137 0 108 -2 122 -19 133
-10 6 -26 33 -35 59 -8 25 -37 72 -63 103 -62 72 -1360 1371 -1435 1434 -30
26 -76 55 -102 63 -26 9 -51 25 -57 35 -9 17 -22 19 -127 19 -111 -1 -118 -2
-134 -24z m183 -340 c40 -18 1395 -1372 1428 -1428 19 -32 21 -43 12 -71 -8
-22 -97 -118 -279 -300 -147 -147 -272 -267 -277 -267 -6 1 -20 6 -33 13 -27
15 -1455 1439 -1477 1473 -8 13 -15 31 -15 41 0 18 480 504 530 537 30 20 67
20 111 2z m-924 -873 c33 -22 1460 -1448 1473 -1473 6 -10 10 -27 10 -38 0
-12 -581 -598 -1607 -1620 -885 -881 -1617 -1608 -1628 -1617 -11 -8 -27 -15
-35 -15 -8 0 -350 335 -760 745 -537 537 -746 752 -748 770 -3 22 218 246
1620 1645 893 891 1629 1620 1636 1620 7 0 24 -8 39 -17z m-2833 -4302 c705
-705 729 -731 718 -755 -13 -30 -48 -41 -182 -55 -52 -6 -117 -18 -143 -26
-26 -8 -92 -19 -145 -24 -54 -6 -136 -19 -182 -30 -47 -11 -116 -22 -155 -26
-38 -3 -98 -11 -131 -17 -49 -9 -69 -8 -95 2 -43 16 -579 547 -615 608 -25 42
-25 44 -9 90 8 26 20 94 26 152 6 58 19 141 29 185 11 44 24 125 29 180 6 55
17 126 26 158 8 32 20 102 26 155 13 127 15 132 47 132 22 0 155 -128 756
-729z"></path>
</g>
</svg>