 <svg version="1.0" xmlns="http://www.w3.org/2000/svg" width="700.000000pt" height="700.000000pt" viewBox="0 0 700.000000 700.000000" preserveAspectRatio="xMidYMid meet">
<metadata>
Created by potrace 1.12, written by Peter Selinger 2001-2015
</metadata>
<g transform="translate(0.000000,700.000000) scale(0.100000,-0.100000)" fill="#848484" stroke="none">
<path d="M5610 6987 c0 -19 -39 -35 -114 -47 -82 -13 -271 -96 -353 -154 -76
-55 -191 -158 -232 -207 -24 -30 -53 -63 -63 -74 -63 -68 -180 -302 -193 -385
-3 -25 -15 -74 -25 -110 -24 -85 -34 -230 -20 -300 l11 -55 -38 -32 c-21 -18
-58 -40 -83 -50 -25 -9 -56 -24 -70 -33 -14 -10 -36 -21 -50 -25 -14 -4 -43
-18 -66 -31 -22 -13 -48 -24 -56 -24 -8 0 -27 -9 -42 -21 -14 -11 -42 -25 -62
-30 -19 -6 -51 -21 -71 -35 -20 -13 -42 -24 -49 -24 -12 0 -116 -48 -154 -71
-8 -5 -31 -16 -50 -24 -55 -24 -173 -80 -215 -103 -52 -27 -173 -82 -182 -82
-6 0 -21 -8 -34 -19 -14 -10 -41 -23 -62 -29 -20 -6 -49 -20 -63 -31 -15 -12
-34 -21 -44 -21 -9 0 -33 -11 -53 -25 -20 -13 -54 -29 -76 -35 -21 -5 -44 -17
-51 -25 -7 -8 -18 -15 -24 -15 -7 0 -43 -16 -82 -35 -38 -19 -74 -35 -80 -35
-6 0 -22 -8 -35 -19 -13 -10 -42 -24 -64 -31 -22 -7 -51 -21 -64 -31 -13 -11
-28 -19 -34 -19 -10 0 -148 -63 -177 -81 -8 -5 -31 -16 -50 -25 -19 -8 -62
-28 -94 -44 -32 -17 -64 -30 -71 -30 -7 0 -18 -7 -25 -14 -6 -8 -33 -22 -60
-31 -27 -9 -54 -22 -60 -30 -6 -8 -26 -17 -43 -21 -18 -3 -44 -13 -58 -22 -25
-14 -30 -13 -70 7 -46 23 -95 55 -141 91 -15 11 -42 26 -60 32 -18 6 -44 19
-58 28 -14 10 -41 21 -60 25 -19 4 -51 15 -70 25 -47 24 -70 28 -250 44 -142
14 -168 13 -305 -3 -101 -12 -163 -24 -190 -38 -22 -11 -55 -23 -73 -26 -19
-4 -46 -15 -60 -25 -15 -11 -42 -24 -60 -30 -19 -6 -46 -22 -62 -34 -16 -13
-46 -34 -67 -48 -59 -39 -245 -229 -284 -290 -85 -133 -145 -269 -159 -358
-12 -70 -20 -91 -44 -112 -22 -17 -24 -364 -2 -377 22 -13 37 -52 47 -117 9
-63 35 -133 90 -241 114 -221 313 -413 539 -521 119 -57 159 -72 205 -79 28
-3 79 -15 114 -26 81 -24 298 -27 381 -4 30 8 89 22 130 30 41 9 88 24 106 34
17 10 47 22 65 26 19 4 43 15 54 25 11 10 37 23 58 30 21 7 41 18 44 26 2 7
13 16 23 19 10 3 36 20 57 36 34 28 43 31 90 26 29 -3 65 -14 80 -25 16 -10
43 -24 62 -31 19 -6 42 -17 50 -25 9 -7 34 -19 56 -26 22 -7 51 -21 65 -30 14
-10 42 -23 64 -28 21 -6 46 -17 55 -25 9 -8 34 -20 56 -27 22 -7 51 -21 64
-31 13 -11 31 -19 41 -19 9 0 41 -13 71 -29 30 -15 65 -32 79 -36 14 -4 36
-16 49 -26 13 -11 31 -19 40 -19 9 0 47 -16 85 -35 39 -19 75 -35 82 -35 6 0
22 -8 35 -19 13 -10 39 -22 58 -26 18 -4 49 -18 68 -31 20 -13 42 -24 49 -24
8 0 35 -11 61 -24 27 -14 78 -39 116 -55 169 -77 278 -128 366 -170 35 -17 69
-31 76 -31 7 0 23 -8 36 -19 13 -10 35 -21 49 -25 14 -4 49 -18 78 -31 28 -14
76 -36 105 -49 75 -34 172 -79 248 -115 36 -17 71 -31 78 -31 7 0 29 -11 49
-25 20 -14 42 -25 48 -25 20 0 44 -36 44 -65 0 -16 -5 -54 -12 -85 -10 -48 -8
-76 16 -218 19 -114 35 -177 52 -209 13 -25 24 -52 24 -59 0 -13 54 -119 93
-185 68 -111 290 -328 396 -384 101 -54 212 -102 251 -110 19 -3 64 -16 100
-28 58 -20 86 -22 260 -22 176 0 200 2 245 22 28 11 70 24 95 28 25 4 68 17
95 30 28 13 61 28 75 34 52 23 138 78 230 147 111 83 266 279 321 404 6 14 21
48 34 75 13 28 28 76 34 107 6 32 18 72 28 90 16 29 18 60 17 243 0 176 -3
216 -17 249 -10 22 -24 68 -32 103 -8 35 -21 73 -29 86 -7 12 -19 40 -26 62
-7 22 -20 49 -29 60 -10 11 -23 31 -29 45 -39 81 -242 303 -308 338 -13 7 -24
16 -24 20 0 5 -19 18 -42 31 -24 12 -65 35 -93 51 -72 42 -112 60 -132 60 -10
0 -32 9 -49 19 -17 10 -60 24 -95 29 -35 6 -107 18 -159 27 -98 18 -213 16
-306 -5 -24 -6 -76 -15 -116 -20 -40 -6 -82 -17 -94 -24 -11 -8 -41 -20 -65
-26 -24 -6 -61 -22 -81 -36 -21 -13 -41 -24 -46 -24 -15 0 -105 -62 -182 -126
-75 -62 -189 -182 -221 -232 -9 -15 -30 -42 -46 -61 l-29 -34 -55 13 c-29 7
-66 21 -81 31 -14 11 -30 19 -35 19 -4 0 -35 13 -68 29 -176 86 -295 141 -304
141 -6 0 -35 14 -64 30 -30 17 -61 30 -69 30 -8 0 -26 8 -39 19 -13 10 -42 24
-64 31 -22 7 -51 21 -65 30 -14 10 -39 21 -57 24 -18 4 -43 16 -55 26 -13 10
-42 23 -65 29 -23 6 -45 16 -48 21 -3 5 -31 18 -63 30 -31 12 -64 28 -72 35
-8 7 -34 18 -56 24 -23 6 -47 18 -54 26 -6 8 -35 21 -65 29 -29 9 -58 23 -65
31 -7 8 -18 15 -25 15 -7 0 -36 13 -66 29 -30 15 -67 31 -83 35 -17 4 -41 15
-55 25 -14 10 -37 22 -51 26 -14 4 -45 17 -70 30 -55 27 -135 65 -215 100 -63
28 -136 62 -245 113 -36 17 -75 34 -88 37 -30 9 -92 63 -92 81 0 8 9 31 20 51
11 21 20 44 20 52 0 7 11 39 25 70 18 42 28 92 39 205 13 131 13 166 0 300
-11 113 -20 165 -38 206 -13 30 -27 69 -31 87 -3 17 -13 37 -21 44 -8 6 -14
19 -14 28 0 27 61 78 106 90 23 6 47 18 54 26 7 8 31 20 54 26 22 6 52 19 66
29 14 9 36 21 50 25 14 4 43 17 65 30 22 12 53 25 69 29 17 4 42 16 57 27 15
10 31 19 36 19 4 0 39 16 77 35 39 19 75 35 82 35 6 0 22 8 35 19 13 10 35 21
49 25 25 7 143 61 170 77 8 5 31 16 50 24 19 8 58 26 85 39 28 14 82 39 120
56 39 18 97 45 129 61 32 16 64 29 71 29 7 0 18 7 25 15 7 8 31 20 54 26 22 5
52 18 66 28 14 10 43 24 65 31 22 7 50 21 63 31 13 10 37 21 55 25 18 3 43 14
57 24 14 10 36 21 50 25 14 4 45 18 70 30 25 13 77 38 115 56 39 17 97 45 129
60 32 16 64 29 71 29 7 0 23 8 36 19 13 10 42 24 64 31 22 7 51 21 64 31 13
11 40 19 61 19 31 0 42 -6 68 -39 18 -22 32 -42 32 -45 0 -3 29 -41 64 -85 64
-80 116 -130 195 -186 23 -16 55 -40 71 -52 15 -13 32 -23 38 -23 5 0 25 -11
45 -25 20 -13 55 -29 77 -35 22 -6 55 -19 73 -29 17 -11 57 -22 87 -26 30 -4
82 -16 115 -27 72 -23 311 -29 385 -8 25 6 81 20 125 30 44 10 98 27 120 39
21 12 46 21 55 21 8 0 32 11 52 25 20 14 41 25 45 25 16 0 109 65 189 131 84
71 128 116 184 192 19 26 47 64 63 84 15 20 27 41 27 48 0 7 8 23 19 36 10 13
24 42 31 64 7 22 20 54 30 72 10 17 23 63 29 102 13 81 28 121 48 121 10 0 13
36 13 181 0 179 0 182 -24 204 -17 15 -26 38 -31 71 -12 95 -57 223 -96 273
-11 13 -19 29 -19 35 0 10 -28 54 -87 135 -19 26 -191 200 -233 236 -33 28
-124 85 -136 85 -6 0 -25 11 -43 24 -19 14 -48 28 -65 32 -17 3 -44 14 -61 24
-16 10 -52 21 -80 25 -84 12 -124 25 -135 45 -10 19 -22 20 -195 20 -148 0
-185 -3 -185 -13z m350 -456 c151 -38 263 -96 364 -191 51 -47 136 -152 136
-167 0 -5 11 -24 25 -43 14 -18 28 -50 31 -69 4 -20 16 -54 28 -76 29 -56 37
-316 11 -385 -9 -25 -25 -69 -36 -98 -10 -29 -27 -65 -39 -79 -11 -14 -20 -30
-20 -34 0 -5 -20 -35 -45 -68 -42 -55 -196 -191 -216 -191 -5 0 -26 -11 -47
-24 -20 -13 -53 -27 -72 -31 -19 -4 -53 -17 -75 -28 -36 -19 -57 -21 -205 -21
-138 -1 -171 2 -205 18 -22 10 -62 25 -90 33 -27 8 -62 24 -77 34 -14 11 -31
19 -36 19 -26 0 -246 215 -257 251 -4 12 -18 37 -31 56 -13 20 -24 43 -24 51
0 8 -12 40 -27 71 -26 54 -27 63 -27 216 0 141 3 165 21 205 12 25 26 64 32
87 6 23 16 45 22 49 6 3 19 25 28 48 56 129 304 329 437 351 22 4 59 13 84 20
104 32 170 31 310 -4z m-4544 -2287 c28 -13 59 -24 70 -24 10 0 33 -9 49 -21
17 -11 41 -25 54 -30 13 -5 39 -22 58 -37 36 -29 158 -147 184 -180 25 -30 85
-149 116 -232 26 -69 28 -85 28 -220 0 -135 -2 -151 -28 -220 -31 -83 -91
-202 -116 -232 -26 -33 -148 -151 -184 -180 -19 -15 -45 -32 -58 -37 -13 -5
-37 -19 -54 -30 -16 -12 -39 -21 -50 -21 -11 0 -38 -10 -60 -22 -36 -21 -56
-23 -206 -26 -158 -3 -169 -2 -225 21 -32 14 -74 28 -91 32 -18 3 -35 11 -39
16 -3 5 -29 21 -57 36 -69 34 -241 206 -268 267 -11 25 -24 48 -29 51 -5 3
-16 28 -24 54 -8 27 -22 64 -33 82 -15 29 -18 58 -18 209 0 151 3 180 18 209
11 18 25 55 33 82 8 26 19 51 24 54 5 3 19 27 30 52 22 49 228 263 254 263 7
0 29 11 49 25 20 13 56 29 79 36 24 6 57 18 73 27 34 18 160 29 285 23 63 -2
98 -9 136 -27z m4494 -2243 c25 -11 54 -21 65 -21 34 0 173 -77 239 -131 77
-65 160 -161 188 -219 11 -25 27 -52 34 -60 7 -9 18 -37 24 -64 6 -26 18 -62
27 -80 12 -23 18 -65 21 -159 4 -118 2 -134 -23 -215 -15 -48 -42 -116 -59
-152 -36 -76 -155 -224 -203 -252 -18 -11 -33 -24 -33 -29 0 -9 -39 -32 -120
-69 -25 -12 -63 -30 -85 -40 -59 -28 -221 -42 -348 -30 -123 12 -170 29 -324
119 -70 40 -205 176 -234 234 -12 23 -27 49 -34 57 -7 8 -16 26 -20 40 -4 14
-16 45 -28 70 -46 104 -47 384 0 495 58 139 82 178 164 268 70 77 105 105 197
159 64 38 108 58 127 58 9 0 32 7 53 17 86 38 292 40 372 4z"></path>
</g>
</svg>