 <svg version="1.0" xmlns="http://www.w3.org/2000/svg" width="700.000000pt" height="700.000000pt" viewBox="0 0 700.000000 700.000000" preserveAspectRatio="xMidYMid meet">
<metadata>
Created by potrace 1.12, written by Peter Selinger 2001-2015
</metadata>
<g transform="translate(0.000000,700.000000) scale(0.100000,-0.100000)" fill="#747473" stroke="none">
<path d="M3125 6111 c-49 -4 -106 -13 -125 -19 -19 -6 -82 -16 -139 -22 -58
-6 -118 -18 -134 -27 -17 -8 -66 -21 -109 -29 -43 -7 -88 -18 -99 -24 -11 -6
-50 -22 -87 -34 -129 -45 -157 -56 -207 -81 -27 -14 -66 -32 -85 -40 -19 -8
-42 -19 -50 -25 -8 -5 -31 -16 -50 -25 -19 -8 -55 -28 -80 -45 -25 -16 -63
-39 -85 -51 -22 -12 -52 -31 -67 -43 -14 -11 -61 -46 -103 -76 -43 -30 -87
-64 -98 -75 -12 -11 -42 -37 -67 -59 -101 -86 -311 -303 -334 -344 -13 -22
-103 -140 -131 -172 -13 -14 -30 -41 -39 -60 -9 -19 -29 -55 -45 -80 -42 -64
-108 -183 -116 -211 -4 -13 -15 -35 -25 -49 -10 -14 -21 -36 -25 -50 -4 -14
-18 -45 -30 -70 -12 -25 -25 -62 -29 -83 -4 -21 -16 -53 -26 -70 -11 -17 -22
-52 -26 -77 -4 -25 -15 -66 -25 -92 -10 -26 -23 -78 -29 -115 -6 -38 -20 -108
-32 -158 -21 -84 -22 -114 -23 -440 0 -346 0 -352 29 -495 16 -80 39 -181 52
-225 12 -44 26 -96 30 -115 3 -19 13 -48 22 -65 8 -16 23 -55 33 -85 24 -76
69 -182 84 -200 7 -8 16 -26 20 -40 11 -34 71 -146 95 -177 11 -14 20 -30 20
-35 0 -6 10 -24 23 -41 12 -18 27 -42 34 -54 6 -12 16 -28 23 -35 10 -11 32
-41 113 -153 70 -95 357 -383 447 -449 104 -75 168 -123 184 -138 11 -10 25
-18 30 -18 10 0 64 -33 123 -75 38 -27 152 -85 167 -85 7 0 29 -11 48 -24 20
-13 53 -29 74 -36 22 -7 48 -19 59 -26 11 -7 43 -18 70 -25 28 -6 60 -17 71
-25 32 -19 224 -70 394 -104 181 -36 271 -42 580 -37 235 4 307 8 355 22 33 9
102 23 153 31 52 8 106 20 120 28 15 8 56 20 92 26 36 7 81 21 100 30 19 10
61 25 92 34 31 9 60 20 63 25 3 6 29 17 59 25 29 9 59 23 66 31 7 8 18 15 24
15 13 0 45 16 214 110 18 10 41 25 50 33 9 8 33 23 52 32 19 10 55 34 80 54
25 20 56 45 70 54 68 47 99 72 145 115 28 26 69 63 90 82 61 54 254 270 305
340 40 56 63 90 156 231 13 19 24 39 24 44 0 4 11 22 24 39 13 17 27 42 31 56
4 14 15 36 25 50 10 14 21 36 25 50 4 14 18 44 31 67 13 23 24 48 24 56 0 8
11 35 24 60 14 25 28 63 32 84 4 21 15 55 26 76 10 20 25 74 34 119 9 45 22
94 29 108 8 15 19 73 24 130 6 56 19 130 28 164 24 89 24 572 0 662 -9 34 -22
108 -28 165 -5 57 -19 123 -29 148 -11 26 -24 74 -29 108 -5 34 -17 76 -27 95
-9 18 -23 53 -30 78 -15 55 -47 135 -85 214 -16 32 -29 64 -29 71 0 7 -7 18
-14 25 -8 6 -20 28 -27 48 -7 20 -22 50 -35 65 -13 16 -24 34 -24 41 0 7 -13
30 -30 51 -16 21 -30 41 -30 45 0 12 -80 130 -130 190 -197 242 -280 325 -520
521 -61 49 -178 129 -190 129 -4 0 -24 14 -45 30 -21 17 -42 30 -48 30 -6 0
-24 11 -41 23 -17 13 -48 29 -68 36 -20 7 -42 19 -48 27 -7 7 -18 14 -24 14
-7 0 -30 9 -51 21 -68 35 -178 80 -230 94 -27 7 -70 22 -95 34 -25 11 -55 21
-68 21 -13 0 -56 11 -95 25 -40 13 -118 29 -177 35 -58 6 -130 17 -160 25 -65
18 -425 28 -565 16z m523 -291 c23 -5 85 -15 136 -20 52 -5 116 -18 143 -29
26 -10 71 -22 98 -25 28 -4 68 -16 90 -26 22 -10 67 -27 100 -38 121 -40 160
-55 175 -67 8 -7 56 -32 105 -55 50 -24 103 -54 118 -67 16 -12 34 -23 41 -23
7 0 29 -12 49 -27 20 -16 51 -38 69 -51 234 -164 460 -387 600 -592 10 -14 31
-43 48 -65 16 -22 39 -59 50 -82 11 -23 25 -45 30 -48 10 -6 140 -267 140
-281 0 -5 9 -26 20 -46 11 -20 25 -58 31 -85 6 -26 18 -58 26 -71 8 -13 20
-55 28 -95 8 -40 21 -89 30 -110 8 -21 20 -84 25 -140 6 -56 15 -118 21 -137
16 -54 23 -402 10 -490 -6 -41 -18 -130 -26 -197 -9 -67 -22 -137 -30 -157 -9
-20 -22 -71 -30 -113 -8 -42 -21 -85 -28 -97 -8 -12 -19 -43 -26 -69 -6 -27
-20 -65 -31 -85 -11 -20 -20 -42 -20 -49 0 -11 -58 -134 -81 -173 -5 -8 -16
-30 -25 -49 -9 -19 -26 -49 -37 -65 -24 -33 -38 -55 -65 -99 -9 -16 -37 -56
-62 -89 -25 -33 -52 -72 -62 -85 -47 -71 -228 -259 -340 -352 -171 -143 -194
-160 -347 -251 -23 -14 -57 -34 -75 -46 -17 -11 -47 -26 -66 -32 -18 -7 -41
-18 -49 -26 -9 -7 -34 -19 -55 -26 -22 -7 -53 -21 -70 -30 -17 -10 -47 -21
-66 -25 -19 -4 -55 -18 -80 -31 -25 -13 -55 -24 -67 -24 -12 0 -51 -11 -86
-24 -34 -13 -92 -27 -127 -31 -36 -4 -105 -16 -155 -28 -80 -19 -120 -21 -375
-21 -236 0 -296 2 -347 16 -34 10 -105 24 -158 33 -53 8 -109 22 -124 30 -16
8 -56 19 -90 24 -34 6 -77 19 -94 29 -18 11 -48 23 -67 27 -19 4 -85 31 -146
61 -61 30 -115 54 -120 54 -5 0 -28 13 -51 28 -23 15 -64 40 -90 56 -52 32
-130 84 -178 119 -16 12 -57 42 -90 66 -76 57 -318 299 -376 377 -24 32 -54
73 -66 89 -29 39 -94 138 -129 195 -15 25 -37 61 -49 80 -13 19 -26 46 -30 60
-4 14 -15 36 -25 50 -10 14 -21 36 -25 50 -4 14 -17 43 -30 65 -13 22 -27 58
-31 80 -4 22 -18 60 -31 84 -12 24 -23 55 -23 68 0 14 -11 57 -24 96 -14 40
-28 95 -31 122 -3 28 -16 91 -28 140 -19 81 -21 118 -21 380 0 240 3 300 16
350 10 33 24 106 32 162 9 57 22 115 30 131 8 15 19 54 25 86 6 32 19 72 30
90 10 17 24 54 30 81 7 28 18 57 25 65 8 8 19 33 26 55 7 22 19 47 26 56 8 8
19 31 26 49 6 19 21 49 32 66 12 18 35 55 51 84 74 126 133 207 251 347 84 99
296 302 342 327 9 5 40 28 67 51 49 41 159 115 172 115 3 0 20 11 38 24 17 13
47 31 66 40 19 9 45 22 59 30 82 44 270 126 289 126 9 0 39 11 68 24 29 14 74
28 100 31 26 4 82 17 123 30 41 13 122 29 180 35 58 7 128 16 155 20 67 11
459 4 513 -10z"></path>
<path d="M3304 4952 c-54 -3 -62 -6 -73 -28 -16 -35 -16 -1672 0 -1708 7 -14
28 -32 50 -40 20 -8 40 -20 44 -26 4 -7 26 -21 49 -31 22 -11 64 -33 91 -49
118 -69 149 -86 185 -105 21 -11 46 -27 56 -37 11 -9 35 -23 54 -33 19 -9 58
-29 85 -45 28 -16 72 -42 99 -57 26 -15 69 -40 95 -55 25 -15 70 -39 99 -54
29 -14 55 -31 58 -35 3 -5 20 -16 37 -24 18 -9 57 -31 87 -50 30 -19 78 -46
105 -60 78 -41 109 -59 140 -83 15 -12 33 -22 39 -22 7 0 27 -11 46 -25 19
-14 46 -25 61 -25 23 0 32 8 49 43 12 23 34 67 50 97 47 89 42 99 -90 167 -19
10 -48 27 -63 37 -34 23 -75 46 -142 81 -27 14 -70 39 -95 55 -25 16 -63 39
-85 50 -22 11 -65 36 -95 55 -30 19 -73 44 -95 55 -78 41 -127 69 -153 87 -15
10 -43 26 -62 36 -19 9 -57 31 -85 47 -46 27 -105 62 -173 100 -15 8 -40 24
-57 36 -16 11 -45 26 -63 34 -18 7 -38 22 -44 33 -7 14 -11 258 -12 789 -1
726 -2 770 -19 783 -17 12 -43 13 -173 7z"></path>
</g>
</svg>