 <svg version="1.0" xmlns="http://www.w3.org/2000/svg" width="700.000000pt" height="700.000000pt" viewBox="0 0 700.000000 700.000000" preserveAspectRatio="xMidYMid meet">
<metadata>
Created by potrace 1.12, written by Peter Selinger 2001-2015
</metadata>
<g transform="translate(0.000000,700.000000) scale(0.100000,-0.100000)" fill="#ffffff" stroke="none">
<path d="M2710 6771 c-55 -7 -182 -52 -210 -76 -8 -7 -29 -20 -46 -28 -32 -16
-154 -135 -154 -150 0 -5 -10 -23 -22 -40 -28 -38 -66 -143 -78 -212 -5 -27
-9 -166 -9 -307 -1 -194 -4 -259 -13 -265 -7 -4 -368 -10 -803 -13 l-790 -5
-38 -27 c-22 -15 -53 -49 -70 -75 -63 -95 -32 -214 73 -282 l51 -33 235 -3
c159 -3 240 -8 250 -16 12 -9 14 -338 16 -2153 l3 -2141 22 -57 c11 -31 24
-75 28 -96 3 -22 17 -55 31 -73 13 -18 24 -38 24 -44 0 -23 70 -118 136 -183
150 -148 243 -198 479 -255 72 -17 3278 -17 3350 0 233 57 332 108 465 242 78
79 132 150 150 197 6 14 19 38 29 53 10 14 22 42 25 61 4 19 17 62 29 95 l22
60 3 2141 c2 1946 4 2143 18 2155 12 10 73 14 250 15 l234 2 45 30 c109 72
141 190 78 285 -17 26 -48 60 -70 75 l-38 27 -789 3 c-519 1 -794 6 -802 13
-9 7 -13 87 -16 302 l-5 292 -32 84 c-18 46 -41 97 -52 112 -10 15 -19 31 -19
36 0 17 -124 135 -161 154 -21 10 -40 23 -43 28 -4 5 -30 17 -59 27 -28 9 -57
21 -63 25 -6 5 -45 14 -85 19 -81 10 -1489 11 -1579 1z m1617 -474 l48 -47 3
-272 c3 -249 1 -274 -14 -285 -26 -19 -1702 -19 -1728 0 -15 11 -17 36 -14
284 l3 272 40 42 c22 22 49 45 60 49 11 5 365 8 787 7 l768 -2 47 -48z m1129
-1051 c12 -5 14 -337 14 -2134 0 -2100 0 -2128 -20 -2167 -11 -21 -24 -53 -30
-70 -18 -54 -114 -142 -199 -183 l-76 -37 -1645 0 -1645 0 -76 37 c-103 49
-173 121 -217 222 l-32 75 0 2126 c0 2095 0 2126 19 2133 22 8 3886 6 3907 -2z"></path>
<path d="M2305 4118 c-28 -17 -64 -52 -80 -77 l-30 -46 0 -1260 0 -1260 32
-48 c17 -26 48 -60 70 -75 33 -23 48 -27 108 -27 63 0 75 3 116 32 30 21 54
50 72 85 l27 53 0 1241 0 1241 -29 54 c-22 41 -41 62 -82 86 -74 45 -135 45
-204 1z"></path>
<path d="M3440 4142 c-54 -27 -91 -58 -118 -101 l-32 -49 0 -1259 0 -1259 29
-45 c90 -143 271 -144 361 -1 l30 47 0 1259 0 1259 -30 48 c-43 66 -101 102
-170 106 -30 1 -62 -1 -70 -5z"></path>
<path d="M4491 4117 c-41 -24 -60 -45 -82 -86 l-29 -54 2 -1256 3 -1256 28
-40 c15 -22 47 -53 70 -70 37 -26 50 -30 112 -30 60 0 75 4 108 27 22 15 53
49 70 75 l32 48 0 1260 0 1260 -30 46 c-16 25 -52 60 -80 77 -69 44 -130 44
-204 -1z"></path>
</g>
</svg>