 <svg version="1.0" xmlns="http://www.w3.org/2000/svg" width="700.000000pt" height="602.000000pt" viewBox="0 0 700.000000 602.000000" preserveAspectRatio="xMidYMid meet">
<metadata>
Created by potrace 1.12, written by Peter Selinger 2001-2015
</metadata>
<g transform="translate(0.000000,602.000000) scale(0.100000,-0.100000)" fill="#ffffff" stroke="none">
<path d="M3220 5808 c-25 -5 -84 -13 -132 -18 -48 -5 -96 -13 -107 -19 -11 -6
-42 -11 -68 -11 -28 0 -58 -6 -69 -15 -10 -8 -35 -15 -55 -15 -19 0 -44 -7
-55 -15 -10 -8 -35 -15 -55 -15 -20 0 -42 -7 -49 -15 -7 -8 -27 -15 -44 -15
-17 0 -40 -7 -50 -15 -11 -8 -28 -15 -39 -15 -10 0 -31 -6 -45 -14 -27 -14
-41 -20 -117 -51 -67 -28 -227 -109 -265 -134 -19 -12 -44 -27 -55 -32 -21
-10 -50 -28 -112 -70 -21 -14 -57 -38 -81 -54 -66 -44 -330 -274 -402 -352
-113 -121 -290 -340 -290 -359 0 -3 -13 -23 -28 -43 -16 -20 -32 -43 -35 -51
-4 -8 -16 -28 -26 -45 -46 -70 -141 -255 -141 -271 0 -6 -7 -17 -15 -24 -8 -7
-15 -23 -15 -35 0 -12 -7 -28 -15 -35 -8 -7 -15 -23 -15 -35 0 -12 -7 -28 -15
-35 -8 -7 -15 -25 -15 -40 0 -15 -7 -33 -15 -40 -8 -7 -15 -25 -15 -40 0 -15
-7 -41 -15 -56 -8 -16 -15 -38 -15 -48 0 -11 -7 -27 -16 -37 -9 -10 -14 -21
-11 -26 3 -4 153 -8 333 -8 l329 0 6 35 c4 19 14 53 24 75 26 62 124 257 146
290 10 17 22 37 26 45 4 8 38 57 77 108 39 52 78 104 86 116 35 52 160 182
253 264 102 88 283 222 300 222 5 0 26 14 47 30 21 17 45 30 53 30 8 0 20 7
27 15 7 8 18 15 25 15 7 0 18 7 25 15 7 8 20 15 30 15 10 0 23 7 30 15 7 8 21
15 30 15 10 0 31 6 47 14 51 27 101 46 116 46 9 0 19 5 22 10 3 6 16 10 28 10
12 0 35 7 51 15 15 8 40 15 55 15 15 0 36 7 47 15 10 8 37 15 59 15 22 1 58 7
80 15 22 8 67 15 100 15 33 0 73 7 89 15 37 19 435 22 454 3 6 -6 49 -13 94
-15 46 -3 97 -11 115 -19 17 -8 47 -14 66 -14 19 0 48 -7 63 -15 16 -8 41 -15
56 -15 15 0 29 -4 32 -9 3 -4 24 -11 46 -15 41 -6 47 -9 108 -39 19 -9 40 -17
47 -17 12 0 51 -17 95 -42 8 -4 22 -11 30 -14 8 -3 22 -10 30 -15 8 -5 21 -11
28 -14 32 -13 39 -17 67 -35 17 -11 37 -23 45 -27 32 -15 208 -138 275 -192
92 -74 255 -237 331 -332 122 -153 250 -364 321 -529 8 -19 21 -48 28 -65 8
-16 15 -39 17 -50 3 -19 12 -20 322 -23 317 -2 357 1 328 30 -7 7 -12 21 -12
33 0 12 -7 30 -15 41 -8 10 -15 31 -15 45 0 14 -7 34 -15 45 -8 10 -15 31 -15
45 0 15 -7 32 -15 39 -8 7 -15 21 -15 32 0 11 -6 32 -14 46 -7 15 -21 43 -29
62 -14 34 -67 141 -86 178 -5 9 -12 24 -15 32 -4 8 -15 29 -26 45 -11 17 -23
37 -27 45 -3 8 -19 31 -35 51 -15 20 -28 39 -28 42 0 28 -206 291 -325 416
-170 178 -447 400 -600 481 -11 6 -33 19 -50 30 -16 11 -37 22 -45 26 -8 3
-22 9 -30 14 -32 20 -178 89 -240 115 -36 15 -69 31 -75 36 -5 5 -18 9 -30 9
-11 0 -33 7 -49 15 -15 8 -38 15 -50 15 -11 0 -30 7 -40 15 -11 8 -34 15 -51
15 -17 0 -40 7 -51 15 -10 8 -35 15 -54 15 -19 0 -46 7 -60 15 -14 8 -43 15
-65 15 -22 0 -58 7 -80 15 -22 8 -63 14 -90 15 -28 0 -82 7 -120 15 -80 17
-497 19 -575 3z m382 -95 c24 -21 23 -60 -2 -73 -23 -12 -26 -40 -8 -58 14
-14 13 -187 0 -252 -6 -29 -13 -36 -35 -38 -52 -6 -57 8 -57 153 0 106 3 135
15 145 8 7 15 18 15 25 0 7 -7 18 -15 25 -18 15 -20 61 -3 78 17 17 68 15 90
-5z m250 -4 c40 -29 37 -72 -7 -79 -37 -6 -43 -43 -8 -48 59 -8 51 -78 -9 -84
l-33 -3 -3 -90 c-2 -75 -6 -93 -24 -112 -27 -29 -40 -29 -73 0 l-27 23 18 88
17 89 -32 27 c-41 32 -39 63 2 68 29 4 31 6 42 55 7 34 61 87 88 87 10 0 32
-9 49 -21z m-475 -21 c4 -7 10 -31 13 -53 4 -33 9 -41 30 -43 14 -2 31 -9 38
-14 18 -15 15 -48 -5 -54 -47 -15 -48 -17 -44 -118 3 -85 1 -99 -15 -111 -28
-21 -50 -18 -73 11 -17 22 -21 41 -21 105 0 77 -1 79 -30 94 -42 22 -42 62 0
77 28 9 30 13 24 43 -8 46 10 75 46 75 16 0 32 -6 37 -12z m652 -12 c29 -31
24 -67 -12 -84 -43 -21 -81 -4 -85 37 -6 64 54 93 97 47z m-821 -127 c3 -34 0
-38 -42 -63 l-46 -27 6 -47 c3 -26 11 -57 17 -70 26 -53 -41 -118 -81 -79 -17
18 -39 119 -49 229 -4 49 -2 58 15 67 11 6 33 8 49 5 20 -4 33 -1 43 11 9 11
25 15 49 13 33 -3 36 -6 39 -39z m793 1 c23 -13 25 -56 4 -96 -8 -16 -15 -53
-15 -82 0 -50 -9 -77 -39 -114 -18 -22 -30 -22 -60 1 -25 19 -26 2 9 205 6 32
15 67 21 77 11 21 49 25 80 9z m-1439 -37 c10 -9 18 -27 18 -40 0 -26 -38 -48
-103 -58 -26 -4 -41 -13 -47 -28 -6 -12 -16 -30 -22 -40 -11 -14 -10 -23 5
-48 9 -17 17 -37 17 -44 0 -18 67 -75 88 -75 20 0 54 21 94 58 24 22 31 24 53
14 35 -16 34 -66 -2 -104 -15 -15 -32 -28 -39 -28 -6 0 -17 -7 -24 -15 -9 -11
-33 -15 -90 -15 -57 0 -81 4 -90 15 -7 8 -18 15 -24 15 -16 0 -86 95 -86 117
0 9 -5 31 -12 48 -8 25 -8 42 3 78 15 53 82 137 109 137 9 0 23 7 30 15 17 21
98 20 122 -2z m328 2 c7 -8 18 -15 25 -15 7 0 25 -16 40 -36 22 -29 26 -42 21
-72 -4 -28 -1 -41 15 -58 20 -22 21 -23 3 -53 -34 -57 -69 -74 -155 -75 -76
-1 -79 0 -113 33 -20 19 -36 40 -36 47 0 6 -7 17 -15 24 -8 7 -15 29 -15 50 0
21 7 43 15 50 8 7 15 19 15 28 0 19 39 62 56 62 6 0 17 7 24 15 8 9 30 15 60
15 30 0 52 -6 60 -15z m1349 -7 c51 -17 101 -56 101 -78 0 -10 5 -22 10 -25
15 -9 12 -68 -5 -92 -18 -25 -38 -24 -139 8 -60 19 -76 18 -76 -6 0 -22 59
-44 125 -47 69 -3 83 -23 44 -64 -43 -46 -155 -28 -224 37 -11 10 -26 38 -33
62 -12 39 -11 51 3 93 19 58 60 104 91 104 13 0 26 5 29 10 8 13 31 13 74 -2z
m509 -57 c28 -25 28 -49 -3 -107 -14 -26 -25 -51 -25 -56 0 -5 -13 -36 -30
-70 -16 -33 -30 -66 -30 -73 0 -7 -7 -18 -15 -25 -8 -7 -15 -19 -15 -28 0 -48
-73 -71 -90 -27 -8 21 -16 25 -53 25 -37 0 -50 6 -80 35 -23 22 -38 47 -39 63
-6 97 17 155 80 197 50 34 97 32 147 -6 37 -28 41 -29 52 -13 7 10 13 27 13
38 0 21 37 66 54 66 6 -1 21 -9 34 -19z"></path>
<path d="M2782 5428 c-31 -31 -5 -60 36 -39 9 5 25 12 35 15 10 3 17 12 15 19
-6 16 -70 21 -86 5z"></path>
<path d="M2880 5345 c-7 -8 -29 -15 -50 -15 -43 0 -54 -8 -39 -27 19 -22 81
-16 122 13 21 14 35 29 32 35 -9 14 -51 11 -65 -6z"></path>
<path d="M4171 5422 c-14 -26 4 -42 45 -42 43 0 53 18 23 41 -31 24 -56 24
-68 1z"></path>
<path d="M4508 5303 c-10 -2 -25 -20 -34 -39 -18 -38 -9 -79 21 -90 24 -9 65
5 71 24 3 9 10 25 15 34 11 22 -4 63 -26 72 -18 6 -20 6 -47 -1z"></path>
<path d="M788 3643 l-788 -3 0 -40 0 -40 799 0 799 0 4 35 c4 32 -7 59 -21 53
-4 -2 -360 -4 -793 -5z"></path>
<path d="M1876 3640 c-1 -3 -2 -20 -2 -38 l1 -32 625 -3 625 -2 45 -27 c25
-15 54 -32 66 -37 36 -16 123 -122 140 -170 9 -25 19 -53 24 -61 4 -9 9 -58
11 -110 l4 -95 -30 0 -30 0 -3 80 c-1 44 -6 89 -11 100 -54 126 -102 184 -190
228 l-51 26 -611 3 -610 3 -6 -23 c-3 -13 -3 -25 0 -28 2 -3 270 -6 593 -7
407 -1 595 -5 609 -13 11 -6 38 -20 59 -30 58 -28 128 -122 143 -193 19 -90
17 -138 -7 -146 -10 -3 -28 -2 -38 4 -16 8 -19 22 -19 85 -1 81 -16 117 -70
167 -65 60 -41 58 -681 60 -367 1 -587 -2 -589 -8 -2 -5 0 -20 5 -32 l8 -22
559 -2 c308 -2 574 -7 590 -11 35 -10 81 -50 100 -86 7 -14 14 -54 16 -90 l4
-65 -85 3 c-62 2 -93 -1 -114 -13 -15 -8 -38 -15 -51 -15 -12 0 -28 -7 -35
-15 -7 -8 -21 -15 -32 -15 -24 0 -178 -152 -178 -177 0 -10 -7 -27 -15 -37 -8
-11 -15 -27 -15 -37 0 -9 -7 -30 -15 -45 -12 -22 -15 -53 -13 -128 l3 -98
-200 1 c-110 1 -201 4 -203 6 -3 3 -2 682 1 735 2 21 -2 25 -28 25 l-30 0 0
-420 c0 -414 0 -420 20 -417 11 2 111 4 223 6 216 2 227 0 220 -46 l-3 -23
-260 0 -260 0 -5 450 -5 450 -35 0 -35 0 0 -480 0 -480 300 -5 300 -5 0 -30
c0 -18 -5 -30 -12 -29 -7 1 -157 2 -333 2 l-321 2 1 508 c1 537 1 536 -44 519
-15 -6 -16 -56 -16 -549 l0 -543 351 3 c248 2 355 0 363 -8 7 -7 10 -44 7
-101 -3 -92 6 -136 52 -239 24 -53 167 -200 195 -200 11 0 25 -7 32 -15 7 -8
24 -15 39 -15 15 0 33 -6 39 -12 16 -16 1109 -25 1124 -10 6 6 -10 21 -38 37
l-47 28 -469 -2 c-491 -2 -537 1 -628 42 -86 40 -210 188 -210 253 0 10 -7 32
-15 48 -22 42 -22 653 0 682 8 10 15 36 15 56 0 20 5 40 11 43 5 4 15 17 20
28 33 73 74 117 152 163 32 19 68 34 80 34 12 0 35 7 51 15 41 22 938 22 976
0 14 -8 35 -14 47 -15 54 -1 192 -104 220 -165 7 -16 17 -37 23 -45 40 -65 40
-71 40 -470 0 -423 -2 -406 59 -425 21 -6 23 -5 17 22 -3 15 -6 82 -8 148 l-3
120 207 5 c147 4 211 9 220 18 6 6 23 12 36 12 13 0 41 14 62 30 21 17 43 30
48 30 13 0 112 120 112 136 0 6 7 17 15 24 8 7 15 24 15 39 0 14 7 35 15 45
21 28 21 199 0 216 -8 7 -15 27 -15 45 0 18 -7 38 -15 45 -8 7 -15 19 -15 27
0 19 -154 173 -173 173 -8 0 -20 7 -27 15 -7 8 -22 15 -34 15 -12 0 -28 6 -34
13 -10 9 -116 13 -447 15 l-434 3 -31 37 c-41 50 -41 104 0 154 17 21 43 39
62 44 36 8 1107 12 1148 4 23 -5 25 -2 25 34 l0 39 -593 -2 c-577 -2 -595 -3
-630 -23 -47 -26 -72 -48 -72 -63 0 -7 -7 -18 -15 -25 -19 -16 -21 -141 -3
-170 10 -15 10 -22 0 -32 -10 -10 -18 -10 -40 2 -26 15 -27 20 -30 102 -2 79
0 91 23 128 31 48 102 120 120 120 7 0 26 7 41 15 25 13 110 15 614 14 l585
-1 3 27 c4 34 -13 54 -30 37 -9 -9 -158 -12 -609 -12 l-598 0 -60 -35 c-63
-37 -94 -71 -129 -141 -28 -54 -38 -159 -22 -209 10 -31 10 -39 -1 -46 -20
-13 -49 -11 -53 4 -21 80 -23 107 -11 175 7 41 18 79 24 85 6 6 11 18 11 27 0
20 95 128 124 141 12 5 41 22 66 37 l45 27 620 2 620 3 0 35 0 36 -599 -1
c-366 0 -605 -4 -617 -10 -10 -6 -31 -10 -47 -10 -16 0 -35 -7 -42 -15 -7 -8
-20 -15 -30 -15 -10 0 -23 -7 -30 -15 -7 -8 -18 -15 -25 -15 -20 0 -122 -118
-143 -164 -44 -97 -47 -112 -48 -221 l0 -110 -30 0 -29 0 -3 122 c-2 92 -6
124 -17 133 -8 7 -15 21 -15 31 0 40 -117 189 -165 210 -11 5 -40 21 -64 34
-24 14 -54 25 -66 25 -12 0 -35 4 -51 10 -29 10 -1214 20 -1218 10z m2858
-645 c11 -8 30 -15 41 -15 12 0 39 -9 61 -19 227 -111 281 -434 102 -613 -40
-40 -110 -88 -129 -88 -6 0 -25 -7 -43 -15 -26 -12 -67 -15 -212 -13 l-179 3
0 25 0 25 185 6 c212 6 240 13 311 77 95 85 129 187 105 314 -25 135 -98 209
-248 253 -47 14 -96 16 -282 14 -206 -2 -227 -1 -246 16 -21 19 -26 41 -10 47
5 2 125 2 266 0 205 -2 261 -6 278 -17z m67 -163 c83 -63 119 -129 119 -217 0
-120 -74 -214 -200 -253 -40 -13 -320 -19 -338 -8 -17 10 -15 55 2 62 8 3 93
6 190 7 196 2 191 0 257 91 56 76 32 202 -49 264 -35 27 -36 27 -245 32 -179
4 -211 7 -220 21 -6 9 -7 24 -4 33 6 15 27 16 221 13 l214 -5 53 -40z m-91
-97 c7 -8 19 -15 26 -15 17 0 64 -73 64 -100 0 -28 -33 -87 -62 -109 -21 -17
-44 -20 -184 -22 -88 -1 -165 1 -171 4 -7 5 -10 27 -7 60 3 28 1 81 -4 117 -5
36 -8 68 -5 73 2 4 78 7 167 7 133 0 166 -3 176 -15z"></path>
<path d="M5394 3638 c-5 -7 -9 -26 -9 -43 l0 -30 808 -3 807 -2 0 40 0 40
-784 0 c-431 0 -791 2 -799 5 -7 3 -18 0 -23 -7z"></path>
<path d="M0 3460 l0 -40 802 2 802 3 0 35 0 35 -802 3 -802 2 0 -40z"></path>
<path d="M5389 3498 c0 -2 -1 -19 -2 -38 l-2 -35 808 -3 807 -2 0 40 0 40
-805 0 c-443 0 -805 -1 -806 -2z"></path>
<path d="M0 3320 l0 -40 798 0 c439 0 801 2 804 5 3 3 2 20 -1 38 l-7 32 -797
3 -797 2 0 -40z"></path>
<path d="M5387 3353 c-2 -5 -3 -21 -2 -38 l2 -30 806 -3 807 -2 0 40 0 40
-804 0 c-443 0 -807 -3 -809 -7z"></path>
<path d="M0 3185 l0 -35 803 2 802 3 0 30 0 30 -802 3 -803 2 0 -35z"></path>
<path d="M5384 3206 c-3 -8 -4 -23 -2 -33 3 -17 41 -18 811 -21 l807 -2 0 35
0 35 -805 0 c-692 0 -806 -2 -811 -14z"></path>
<path d="M0 3050 l0 -40 802 2 802 3 0 35 0 35 -802 3 -802 2 0 -40z"></path>
<path d="M5387 3058 c-2 -18 -3 -36 0 -40 2 -5 366 -8 809 -8 l804 0 0 40 0
40 -804 0 -804 0 -5 -32z"></path>
<path d="M0 2910 l0 -40 793 -2 c435 -2 797 0 802 4 6 3 10 21 9 40 l-1 33
-801 3 -802 2 0 -40z"></path>
<path d="M3000 2933 c-25 -9 -61 -23 -80 -32 -40 -19 -140 -115 -140 -135 0
-7 -6 -19 -14 -25 -7 -6 -17 -33 -22 -59 -11 -65 -10 -689 2 -732 21 -80 102
-183 164 -209 14 -6 32 -15 40 -20 42 -25 137 -31 538 -32 232 -1 425 1 428 3
3 3 -18 20 -46 37 l-50 31 -393 0 c-456 0 -456 0 -544 88 -29 29 -53 60 -53
70 0 9 -7 26 -15 36 -13 17 -15 76 -15 360 0 324 1 342 21 383 27 55 106 143
129 143 10 0 23 7 30 15 11 13 79 15 506 15 482 0 494 0 534 -21 57 -30 146
-131 155 -177 4 -20 9 -179 12 -352 4 -305 4 -315 25 -337 12 -13 26 -22 31
-20 5 1 8 158 8 352 -1 362 -1 363 -42 435 -5 8 -13 24 -18 35 -11 24 -74 84
-114 109 -15 9 -55 26 -89 37 -56 18 -91 19 -502 18 -363 -1 -449 -4 -486 -16z"></path>
<path d="M5389 2948 c0 -2 -1 -20 -3 -40 l-3 -38 809 0 808 0 0 40 0 40 -805
0 c-443 0 -805 -1 -806 -2z"></path>
<path d="M0 2770 l0 -39 793 -3 c435 -2 797 0 802 4 6 3 10 21 10 40 l0 33
-802 3 -803 2 0 -40z"></path>
<path d="M2991 2790 c-45 -25 -101 -80 -101 -99 0 -9 -7 -25 -15 -35 -13 -17
-15 -73 -15 -334 l0 -315 26 -53 c29 -60 41 -72 106 -108 l47 -26 335 0 c188
0 337 4 340 9 3 5 -11 19 -31 31 -36 21 -46 22 -319 20 -266 -1 -284 0 -321
20 -43 22 -79 58 -106 107 -15 27 -17 64 -17 316 0 241 2 286 15 297 8 7 15
20 15 29 0 19 49 71 67 71 6 0 16 7 23 15 11 13 73 15 446 15 l434 0 38 -24
c21 -13 50 -40 65 -60 25 -32 28 -42 25 -107 l-3 -71 -315 -1 -315 -2 -3 -42
c-3 -40 -1 -43 40 -70 24 -15 69 -47 100 -70 31 -24 59 -43 62 -43 3 0 52 -34
108 -75 57 -41 117 -84 133 -96 59 -40 206 -144 354 -249 27 -19 88 -62 135
-95 47 -33 108 -77 135 -97 26 -21 51 -35 55 -31 3 3 6 23 6 44 0 31 -5 40
-32 57 -18 11 -80 53 -138 93 -58 40 -130 90 -160 111 -30 20 -98 69 -150 108
-52 38 -104 74 -115 79 -31 13 -61 51 -48 59 6 4 42 5 80 2 l68 -5 3 -37 c3
-38 30 -68 62 -68 13 0 15 18 13 117 -2 65 -4 199 -6 298 -2 197 -8 216 -74
275 -70 62 -47 60 -555 59 -436 0 -465 -1 -497 -19z m824 -376 l230 -3 3 -30
3 -31 -224 0 c-184 0 -230 3 -255 16 -42 20 -44 77 -3 57 9 -4 120 -8 246 -9z
m233 -156 l3 -28 -141 0 c-113 0 -146 3 -165 16 -14 9 -25 23 -25 30 0 12 28
14 163 12 l162 -3 3 -27z"></path>
<path d="M5387 2803 c-2 -5 -3 -24 -3 -43 1 -33 3 -35 34 -34 17 0 381 1 807
2 l775 2 0 40 0 40 -804 0 c-443 0 -807 -3 -809 -7z"></path>
<path d="M778 2663 l-778 -3 0 -30 0 -30 775 -2 c426 -1 785 -2 796 -2 29 -1
48 28 33 52 -6 9 -20 17 -30 17 -10 0 -369 -1 -796 -2z"></path>
<path d="M5387 2664 c-2 -5 -2 -24 0 -43 5 -32 7 -33 42 -27 20 3 381 6 804 6
l767 0 0 30 0 30 -767 0 c-423 0 -784 3 -804 6 -20 4 -39 2 -42 -2z"></path>
<path d="M783 2533 l-783 -3 0 -35 0 -35 793 -2 c439 -2 798 1 805 6 25 18 6
80 -22 74 -6 -2 -363 -4 -793 -5z"></path>
<path d="M5387 2510 c-4 -18 -4 -36 -1 -41 3 -5 345 -9 810 -9 l804 0 0 35 0
35 -759 0 c-417 0 -778 3 -803 6 -44 6 -45 6 -51 -26z"></path>
<path d="M0 2355 l0 -46 795 2 c586 1 797 4 803 12 5 7 8 26 8 42 l-1 30 -802
3 -803 2 0 -45z"></path>
<path d="M5388 2365 c-2 -20 1 -40 6 -44 6 -5 370 -9 809 -10 l797 -1 0 45 0
45 -804 0 -804 0 -4 -35z"></path>
<path d="M3414 2326 c-3 -8 -4 -27 -2 -43 3 -28 32 -51 255 -205 35 -24 110
-77 167 -118 57 -41 150 -106 205 -145 55 -38 140 -98 188 -132 49 -35 106
-75 127 -90 22 -16 68 -49 103 -76 36 -26 69 -45 74 -42 5 4 9 21 9 39 0 27
-8 38 -47 67 -26 19 -55 39 -65 44 -26 15 -180 123 -253 178 -35 26 -67 47
-70 47 -3 0 -41 26 -83 58 -42 32 -115 84 -162 117 -47 32 -101 70 -120 84
-19 14 -42 31 -51 36 -38 23 -164 113 -215 153 -42 33 -55 40 -60 28z"></path>
<path d="M752 2253 l-752 -3 0 -40 0 -40 803 4 802 4 0 39 0 38 -50 0 c-27 0
-389 -1 -803 -2z"></path>
<path d="M5387 2254 c-3 -5 -4 -24 -3 -42 l1 -33 808 -5 807 -4 0 40 0 40
-722 0 c-398 0 -759 3 -804 6 -45 4 -84 3 -87 -2z"></path>
<path d="M3414 2176 c-16 -43 0 -70 76 -123 41 -29 102 -72 134 -95 33 -24 64
-45 70 -47 6 -2 36 -23 66 -45 53 -40 95 -70 129 -91 8 -5 41 -29 73 -52 31
-24 59 -43 62 -43 5 0 45 -29 206 -150 19 -14 67 -47 105 -72 39 -26 98 -69
132 -97 33 -27 64 -47 67 -44 3 4 6 23 6 44 0 35 -5 41 -56 76 -30 21 -100 71
-155 111 -54 39 -102 72 -104 72 -3 0 -48 32 -99 70 -52 39 -96 70 -99 70 -3
0 -44 28 -91 63 -47 34 -132 94 -188 132 -56 39 -149 105 -206 147 -129 97
-121 92 -128 74z"></path>
<path d="M752 2122 c-3 -8 3 -29 12 -48 9 -19 16 -43 16 -52 0 -10 7 -27 15
-38 8 -10 15 -31 15 -45 0 -15 7 -32 15 -39 8 -7 15 -23 15 -35 0 -12 7 -28
15 -35 8 -7 15 -19 15 -26 0 -16 134 -281 154 -304 7 -8 16 -22 20 -30 11 -23
29 -52 56 -90 14 -19 30 -42 35 -51 69 -115 298 -374 439 -497 106 -92 270
-222 281 -222 4 0 33 -20 65 -45 32 -25 64 -45 71 -45 7 0 20 -6 28 -14 28
-24 263 -148 332 -174 19 -7 47 -19 62 -27 16 -8 37 -15 47 -15 9 0 23 -7 30
-15 7 -8 27 -15 44 -15 17 0 40 -7 50 -15 11 -8 31 -15 45 -15 14 0 35 -7 45
-15 11 -8 37 -15 57 -15 21 0 40 -4 43 -9 4 -5 30 -12 59 -16 28 -4 57 -11 62
-15 9 -7 76 -19 190 -35 17 -2 121 -12 232 -21 166 -14 219 -15 300 -6 54 7
143 15 198 18 55 3 109 9 120 14 11 4 52 13 90 18 111 17 189 33 200 43 5 5
23 9 40 9 17 0 39 6 50 14 11 7 34 16 50 18 36 7 89 25 128 44 16 8 37 14 47
14 9 0 23 7 30 15 7 8 23 15 35 15 12 0 28 7 35 15 7 8 23 15 35 15 12 0 28 7
35 15 7 8 18 15 25 15 18 0 183 86 222 116 17 13 37 24 43 24 7 0 29 13 49 29
20 15 41 30 48 32 6 2 74 52 150 111 126 98 421 380 463 443 8 13 53 74 101
137 47 62 88 120 92 128 4 8 16 29 27 45 11 17 23 37 26 45 4 8 13 22 20 30
12 14 110 209 142 280 8 19 21 47 29 62 7 14 13 35 13 46 0 11 7 25 15 32 8 7
15 25 15 40 0 15 7 33 15 40 8 7 15 24 15 38 0 14 7 33 16 43 9 10 13 23 9 28
-4 8 -112 11 -331 11 -300 0 -325 -1 -330 -17 -15 -47 -114 -251 -144 -298
-11 -16 -23 -37 -27 -45 -3 -8 -19 -31 -35 -51 -15 -20 -28 -40 -28 -44 0 -17
-145 -192 -244 -294 -98 -100 -284 -261 -302 -261 -3 0 -23 -13 -44 -30 -21
-16 -40 -30 -43 -30 -3 0 -29 -16 -58 -35 -48 -32 -218 -118 -299 -153 -19 -8
-48 -21 -63 -28 -16 -8 -39 -14 -52 -14 -12 0 -28 -7 -35 -15 -7 -8 -27 -15
-44 -15 -18 0 -41 -7 -52 -15 -10 -8 -37 -15 -60 -15 -22 0 -49 -7 -60 -15
-10 -8 -39 -15 -64 -15 -25 0 -67 -7 -94 -15 -70 -21 -632 -21 -691 0 -22 8
-58 15 -80 15 -22 0 -53 7 -69 15 -15 8 -45 15 -65 15 -20 0 -45 7 -55 15 -11
8 -34 15 -52 15 -17 0 -37 7 -44 15 -7 8 -24 15 -37 15 -14 0 -37 6 -51 14
-15 8 -63 29 -107 47 -80 34 -150 68 -215 108 -19 11 -44 25 -55 31 -103 53
-337 235 -446 347 -132 136 -297 348 -336 433 -3 8 -16 31 -28 50 -43 69 -85
153 -85 170 0 10 -6 23 -14 30 -8 6 -16 23 -18 38 l-3 26 -314 1 c-253 0 -315
-3 -319 -13z m724 -327 c26 -39 10 -71 -77 -158 -90 -89 -92 -113 -8 -71 30
15 67 33 82 40 35 17 119 18 135 2 7 -7 12 -26 12 -42 0 -26 -19 -48 -124
-148 -125 -118 -155 -135 -184 -106 -28 28 -13 62 48 111 33 26 64 47 68 47
15 0 64 58 54 64 -5 3 -35 -8 -66 -24 -31 -16 -70 -32 -86 -35 -17 -4 -32 -11
-35 -16 -12 -19 -71 -9 -94 15 l-23 25 45 53 c25 29 67 72 93 96 36 32 45 45
36 54 -9 9 -16 8 -29 -4 -10 -8 -25 -18 -33 -22 -8 -3 -28 -15 -45 -26 -16
-11 -37 -22 -45 -26 -8 -3 -25 -11 -37 -17 -46 -22 -83 45 -46 85 9 10 23 18
31 18 7 0 26 6 40 14 28 14 43 21 127 56 28 11 57 25 65 30 31 19 79 11 96
-15z m4251 -53 c49 -26 136 -87 157 -111 18 -19 18 -22 2 -46 -19 -28 -57 -33
-76 -10 -7 8 -17 15 -22 15 -6 0 -28 14 -49 31 -46 36 -92 37 -97 3 -2 -16 13
-32 68 -69 80 -54 101 -87 74 -116 -25 -28 -39 -24 -110 27 -75 53 -117 62
-122 25 -3 -17 5 -31 25 -47 15 -13 32 -23 36 -24 5 0 26 -14 48 -32 44 -35
51 -71 19 -88 -26 -14 -55 -5 -101 31 -20 16 -40 29 -43 29 -4 0 -29 17 -56
37 -58 43 -64 71 -23 101 14 10 31 34 37 53 7 21 25 43 49 58 30 20 37 30 37
57 0 25 8 39 37 63 42 35 64 37 110 13z m-4043 -386 c20 -18 36 -40 36 -49 0
-9 12 -22 27 -29 59 -29 55 -40 -47 -143 -105 -105 -132 -116 -158 -62 -7 15
-26 34 -42 42 -45 23 -60 53 -60 116 0 57 0 58 57 108 51 46 62 51 104 51 40
0 53 -5 83 -34z m3794 -14 c35 -23 27 -48 -37 -115 -33 -33 -57 -65 -55 -69 9
-14 51 -9 65 8 15 19 34 50 48 80 10 23 37 38 52 28 17 -10 10 -95 -10 -128
-34 -54 -73 -76 -136 -76 -70 0 -107 25 -141 96 -29 62 -30 74 -5 123 20 38
50 64 86 74 31 8 107 -4 133 -21z m-361 -134 c30 -29 35 -30 57 -18 44 23 75
-22 41 -60 -13 -14 -8 -24 50 -90 36 -40 65 -81 65 -90 0 -10 -11 -25 -25 -34
-32 -21 -43 -14 -114 71 -47 56 -56 62 -79 57 -38 -9 -42 -13 -42 -34 0 -17
-28 -36 -82 -54 -10 -3 -18 -10 -18 -16 0 -20 32 -23 64 -7 60 30 78 29 113
-5 47 -45 46 -89 -4 -140 -20 -21 -42 -38 -49 -38 -6 0 -17 -7 -24 -15 -17
-21 -36 -19 -70 7 -31 22 -40 56 -17 62 58 15 102 35 102 47 0 18 -48 17 -92
-2 -28 -12 -34 -11 -52 6 -12 10 -21 24 -21 30 0 7 -7 18 -15 25 -51 42 47
150 126 138 16 -2 23 5 34 35 12 37 12 40 -11 60 -28 24 -31 53 -7 79 22 25
32 23 70 -14z m-3237 -48 c3 -15 14 -26 25 -28 11 -1 37 -17 59 -35 33 -29 39
-39 39 -74 0 -34 -10 -53 -63 -122 -34 -46 -69 -85 -78 -88 -20 -8 -66 18 -70
40 -2 10 21 46 57 86 34 38 61 75 61 83 0 21 -37 51 -54 45 -8 -3 -41 -38 -73
-77 -63 -77 -89 -87 -118 -44 -16 24 -15 27 11 62 16 20 57 69 92 110 69 79
101 91 112 42z m328 -237 c19 -21 43 -37 52 -35 24 4 57 -35 42 -50 -7 -7 -12
-18 -12 -24 0 -7 -20 -42 -45 -78 -25 -37 -45 -69 -45 -73 0 -14 -44 -53 -61
-53 -10 0 -24 12 -31 28 -11 21 -20 27 -45 26 -24 -1 -39 7 -65 35 -33 34 -34
39 -30 98 3 58 7 67 49 113 44 49 46 50 100 50 51 0 58 -3 91 -37z m2661 -9
c15 -20 21 -41 21 -81 0 -29 6 -69 14 -88 20 -46 24 -218 7 -239 -35 -41 -81
4 -81 78 0 41 -3 47 -41 73 -79 55 -159 126 -159 143 0 24 20 40 50 40 17 0
40 -15 70 -45 24 -25 52 -45 62 -45 22 0 22 0 3 36 -21 42 -20 130 3 143 25
15 28 14 51 -15z m-287 -69 c16 -35 -12 -65 -62 -65 -39 0 -78 -29 -65 -49 3
-7 42 -11 91 -11 72 0 89 -3 114 -22 17 -12 30 -30 30 -39 0 -10 5 -21 10 -24
6 -3 10 -17 10 -30 0 -13 -4 -27 -10 -30 -5 -3 -10 -13 -10 -22 0 -20 -38 -63
-56 -63 -6 0 -17 -7 -24 -15 -10 -12 -30 -15 -84 -13 -66 3 -71 5 -74 26 -5
36 25 62 70 62 51 0 78 15 78 43 0 39 -17 46 -94 40 -67 -5 -73 -4 -104 22
-29 24 -32 32 -32 82 0 53 2 58 42 95 38 35 46 38 100 38 53 0 60 -2 70 -25z
m-2114 -59 c20 -13 43 -31 51 -40 11 -12 17 -14 28 -5 10 9 18 8 33 -6 11 -10
20 -23 20 -30 0 -10 -43 -105 -71 -157 -5 -10 -9 -24 -9 -32 0 -7 -7 -19 -15
-26 -8 -7 -15 -21 -15 -30 0 -31 -69 -80 -111 -80 -77 0 -184 73 -177 120 6
45 32 47 79 6 65 -55 104 -59 133 -13 13 20 0 35 -16 19 -22 -22 -48 -12 -93
33 -52 52 -57 80 -24 149 23 49 42 69 91 96 45 24 53 24 96 -4z m1650 -79 c13
-14 21 -34 20 -48 -3 -21 0 -24 28 -21 24 2 35 -3 47 -22 16 -24 15 -25 -20
-54 l-36 -29 16 -32 c9 -18 19 -58 23 -90 6 -53 4 -60 -17 -74 -22 -16 -24
-15 -46 5 -13 12 -23 30 -23 41 0 10 -7 33 -14 50 -8 18 -16 46 -18 62 -2 22
-8 30 -21 29 -10 -1 -25 9 -34 22 -15 23 -14 26 7 49 18 19 22 31 17 61 -11
69 28 97 71 51z m-1289 -62 c54 -46 76 -118 51 -166 -13 -23 -50 -25 -91 -4
-37 19 -100 24 -106 8 -6 -18 51 -43 99 -43 55 0 72 -11 63 -39 -11 -35 -113
-68 -130 -42 -3 5 -19 12 -35 16 -31 7 -80 56 -80 81 0 8 -6 23 -12 34 -10 16
-10 24 0 40 6 11 12 28 12 38 0 10 16 37 36 60 35 41 37 42 99 42 53 0 68 -4
94 -25z m180 -49 c8 -9 32 -14 71 -13 42 0 65 -5 78 -16 21 -19 48 -22 57 -7
12 19 70 10 109 -16 l38 -26 -7 -99 c-8 -118 -24 -159 -64 -159 -15 0 -32 5
-39 12 -16 16 -15 77 3 108 28 50 14 110 -26 110 -29 0 -48 -44 -51 -115 -3
-61 -6 -70 -31 -89 l-27 -20 -20 20 c-19 19 -20 26 -10 114 9 81 8 96 -5 109
-11 12 -20 13 -32 5 -18 -11 -42 -91 -43 -145 0 -25 -8 -43 -25 -59 -24 -23
-25 -23 -45 -5 -16 15 -20 30 -20 84 0 36 5 84 11 106 6 22 13 51 16 65 2 14
6 31 8 38 6 16 40 15 54 -2z m781 -31 c15 -14 18 -14 30 0 9 10 31 15 73 15
66 0 97 -17 97 -54 0 -12 7 -30 15 -40 19 -25 21 -166 3 -184 -16 -16 -55 -15
-65 0 -4 7 -11 33 -15 58 -23 138 -22 135 -46 138 -13 2 -30 -2 -38 -8 -16
-14 -19 -66 -4 -75 6 -3 10 -32 10 -64 0 -62 -21 -96 -56 -89 -29 5 -49 72
-60 208 -6 74 -5 84 11 96 23 17 25 17 45 -1z m-205 -5 c3 -5 14 -10 24 -10
32 0 91 -80 91 -124 0 -39 -24 -50 -113 -50 -66 -1 -82 -4 -82 -16 0 -19 69
-25 121 -11 41 11 74 0 74 -24 0 -8 -15 -25 -33 -39 -29 -22 -44 -26 -108 -26
-71 0 -74 1 -111 37 -37 36 -38 39 -38 108 0 69 1 72 38 107 45 44 123 71 137
48z"></path>
<path d="M1561 1272 c-26 -22 -32 -33 -29 -57 3 -26 8 -30 36 -33 68 -7 110
60 64 101 -25 23 -32 22 -71 -11z"></path>
<path d="M5348 1279 c-29 -21 -37 -52 -17 -65 15 -9 84 60 75 75 -10 16 -27
13 -58 -10z"></path>
<path d="M2082 840 c-30 -40 -29 -77 3 -92 35 -16 79 16 83 61 6 64 -48 83
-86 31z"></path>
<path d="M2386 687 c-13 -10 -17 -24 -14 -57 3 -44 4 -45 37 -45 28 0 37 6 53
34 17 30 18 35 3 57 -17 27 -51 31 -79 11z"></path>
<path d="M2717 592 c-25 -27 -21 -42 11 -42 15 0 34 -4 42 -10 14 -9 40 4 40
20 0 8 -61 50 -72 50 -3 0 -12 -8 -21 -18z"></path>
<path d="M3515 470 c-23 -26 -15 -33 40 -36 52 -2 64 9 39 37 -22 25 -56 24
-79 -1z"></path>
</g>
</svg>