 <svg version="1.0" xmlns="http://www.w3.org/2000/svg" width="700.000000pt" height="699.000000pt" viewBox="0 0 700.000000 699.000000" preserveAspectRatio="xMidYMid meet">
<metadata>
Created by potrace 1.12, written by Peter Selinger 2001-2015
</metadata>
<g transform="translate(0.000000,699.000000) scale(0.100000,-0.100000)" fill="#ffffff" stroke="none">
<path d="M3140 6963 c-63 -7 -127 -15 -142 -16 -15 -1 -30 -6 -34 -10 -4 -4
-23 -7 -42 -7 -74 0 -483 -100 -537 -131 -5 -4 -23 -9 -40 -13 -16 -4 -43 -13
-60 -21 -16 -7 -73 -31 -125 -53 -107 -46 -237 -107 -260 -122 -8 -6 -26 -16
-40 -23 -149 -74 -429 -258 -580 -382 -106 -88 -309 -284 -364 -351 -22 -28
-72 -87 -111 -131 -38 -44 -94 -116 -124 -159 -30 -44 -69 -97 -86 -119 -17
-22 -49 -71 -70 -110 -22 -38 -65 -117 -97 -175 -58 -106 -188 -399 -188 -425
0 -8 -4 -17 -10 -20 -5 -3 -10 -13 -10 -21 0 -8 -9 -33 -19 -57 -48 -105 -141
-508 -164 -712 -2 -20 4 -20 522 -20 l524 0 23 115 c13 63 28 124 33 135 4 11
16 47 26 80 19 63 91 259 104 285 51 98 111 205 138 248 18 29 33 55 33 58 0
23 202 273 320 397 233 245 634 497 960 604 100 33 257 73 284 73 13 0 26 3
30 8 4 4 17 8 29 8 12 1 58 8 102 15 111 19 551 19 665 0 47 -8 94 -15 105
-16 11 -1 27 -4 35 -7 8 -4 43 -11 78 -18 35 -6 96 -22 135 -35 40 -13 91 -28
115 -35 126 -33 532 -250 657 -350 28 -22 82 -64 120 -94 75 -58 262 -246 310
-311 16 -22 46 -61 67 -86 52 -64 157 -233 217 -350 85 -164 173 -411 223
-624 l23 -100 525 0 c519 0 525 0 523 20 -9 70 -53 325 -61 350 -5 17 -17 64
-27 105 -27 118 -55 211 -76 257 -10 24 -19 47 -19 53 0 6 -4 18 -9 28 -5 9
-33 76 -61 147 -65 159 -101 233 -195 396 -154 266 -294 446 -549 707 -156
160 -301 282 -514 432 -187 132 -515 301 -757 390 -33 13 -69 26 -80 30 -117
45 -398 115 -505 126 -30 3 -62 8 -70 12 -8 3 -24 6 -35 8 -11 1 -81 9 -155
17 -170 19 -552 19 -710 0z m860 -67 c348 -55 610 -132 898 -263 469 -215 823
-478 1197 -893 328 -364 611 -899 730 -1380 47 -188 81 -389 72 -414 -6 -14
-59 -16 -472 -16 l-465 0 -10 23 c-5 12 -16 56 -25 97 -27 126 -123 398 -184
525 -119 246 -289 485 -480 675 -153 152 -317 277 -511 390 -305 177 -556 265
-912 319 -204 31 -500 30 -698 -4 -421 -70 -614 -144 -1005 -383 -107 -66
-304 -224 -396 -319 -200 -204 -396 -485 -510 -729 -48 -101 -140 -375 -164
-489 -10 -44 -22 -86 -28 -92 -7 -10 -113 -13 -469 -13 -406 0 -459 2 -465 16
-9 24 25 223 69 404 42 173 120 388 217 600 288 631 806 1192 1414 1530 418
232 785 358 1227 419 204 29 213 29 530 25 244 -2 307 -6 440 -28z"></path>
<path d="M3493 6759 c-43 -16 -56 -76 -27 -131 25 -48 11 -226 -22 -290 -31
-62 -30 -83 5 -119 29 -29 30 -29 149 -29 102 0 121 3 135 18 21 23 22 75 2
105 -12 19 -13 45 -7 150 7 110 11 130 30 150 28 30 30 89 3 116 -11 11 -35
22 -53 25 -66 10 -194 13 -215 5z m235 -54 c21 -7 13 -48 -14 -70 -26 -21 -27
-26 -35 -170 -8 -141 -8 -150 11 -170 24 -25 26 -53 5 -62 -9 -3 -64 -1 -123
3 -92 8 -107 12 -110 27 -2 11 7 31 21 45 20 22 27 44 36 118 17 142 15 207
-9 229 -19 18 -26 45 -14 58 6 6 210 -1 232 -8z"></path>
<path d="M2761 6694 c-188 -48 -217 -60 -227 -99 -10 -42 16 -156 42 -182 27
-26 75 -31 94 -8 20 24 37 1 50 -71 10 -53 10 -73 0 -105 -16 -47 -5 -79 35
-105 25 -16 31 -16 128 7 119 28 157 53 157 104 0 21 -10 45 -29 69 -19 23
-34 59 -41 94 -6 31 -14 65 -16 75 -5 14 2 17 39 17 44 0 67 15 80 51 9 25
-22 145 -44 174 -28 35 -60 32 -268 -21z m236 -6 c14 -17 36 -136 28 -148 -10
-16 -45 -11 -52 8 -17 48 -59 66 -83 37 -10 -12 -10 -24 -2 -53 6 -20 21 -82
32 -137 19 -87 26 -104 53 -127 45 -38 30 -58 -64 -81 -103 -26 -143 -27 -147
-3 -2 10 2 29 9 42 10 19 9 40 -4 111 -22 122 -40 190 -54 204 -19 19 -53 -17
-53 -56 0 -35 -21 -60 -43 -52 -8 3 -20 39 -29 82 -17 90 -28 80 122 115 52
12 114 29 138 36 23 8 53 14 65 14 12 0 29 5 37 10 20 13 36 12 47 -2z"></path>
<path d="M4172 6664 c-37 -26 -45 -50 -32 -102 11 -42 9 -58 -15 -152 -22 -83
-35 -113 -61 -143 -42 -46 -45 -88 -9 -121 25 -23 144 -64 215 -73 44 -6 75
18 86 64 10 49 13 53 38 53 30 0 62 38 76 91 10 35 14 39 44 39 42 0 73 32 92
95 19 64 18 114 -3 137 -9 10 -42 25 -72 34 -31 9 -111 33 -179 55 -138 44
-149 45 -180 23z m104 -50 c27 -8 56 -19 64 -23 8 -4 40 -14 70 -21 30 -7 60
-16 65 -21 6 -4 30 -11 53 -15 23 -4 45 -10 47 -14 9 -14 -29 -152 -42 -157
-20 -8 -43 17 -43 46 0 35 -16 55 -62 76 -54 24 -71 17 -82 -33 -12 -57 4 -75
38 -43 13 13 32 21 43 19 23 -5 21 -49 -5 -133 -17 -51 -23 -60 -43 -60 -21 0
-25 6 -29 45 -7 65 -30 59 -48 -14 -11 -45 -12 -64 -3 -78 13 -21 15 -65 2
-73 -5 -3 -29 1 -53 9 -24 8 -69 22 -100 31 -32 10 -62 23 -68 30 -14 17 -2
45 25 55 25 10 50 74 81 212 15 66 16 83 4 117 -21 64 -3 73 86 45z"></path>
<path d="M1970 6416 c-70 -27 -260 -138 -280 -164 -29 -36 -19 -68 35 -117 58
-53 125 -194 125 -265 0 -53 25 -93 66 -105 26 -7 203 82 249 126 17 16 39 29
49 29 29 0 135 61 162 92 50 60 20 137 -59 152 -20 4 -52 13 -72 22 -34 14
-35 16 -35 65 0 101 -60 170 -153 176 -29 1 -68 -3 -87 -11z m144 -57 c52 -41
70 -105 40 -147 -18 -26 -8 -46 29 -56 13 -3 41 -13 63 -23 21 -9 52 -17 69
-17 23 -1 31 -7 39 -28 7 -19 6 -31 -3 -42 -22 -26 -140 -88 -154 -80 -6 5
-45 34 -85 66 -40 32 -77 58 -82 58 -19 0 -20 -21 -1 -58 24 -48 46 -66 67
-58 21 8 44 -11 44 -35 0 -13 -19 -29 -62 -50 -34 -17 -79 -42 -100 -55 -46
-29 -64 -30 -78 -3 -8 15 -8 24 0 34 15 19 2 59 -61 193 -28 58 -57 105 -67
108 -62 19 -65 58 -7 89 22 11 78 42 125 67 47 25 94 48 105 51 47 12 93 6
119 -14z"></path>
<path d="M1926 6261 c-10 -15 38 -111 55 -111 21 0 49 32 49 57 0 41 -85 85
-104 54z"></path>
<path d="M4968 6340 c-26 -26 -29 -36 -25 -68 8 -60 -63 -213 -127 -274 -54
-52 -64 -91 -32 -127 28 -31 191 -121 219 -121 16 0 35 12 52 32 22 26 26 38
21 68 -9 55 68 209 135 271 58 54 64 86 22 128 -33 32 -192 121 -217 121 -10
0 -31 -14 -48 -30z m149 -71 c48 -29 92 -55 96 -59 14 -12 -12 -50 -33 -50
-25 0 -47 -34 -104 -155 -26 -55 -51 -107 -56 -116 -6 -11 -3 -24 7 -38 12
-17 12 -25 3 -36 -7 -8 -19 -15 -26 -15 -17 0 -192 98 -200 112 -8 13 24 46
50 50 16 2 35 32 83 128 63 126 72 157 52 177 -14 14 5 53 25 53 8 0 54 -23
103 -51z"></path>
<path d="M5592 5963 c-18 -7 -42 -57 -42 -87 0 -36 -139 -201 -177 -210 -44
-12 -73 -44 -73 -85 0 -32 12 -47 148 -178 81 -78 157 -146 170 -149 35 -10
78 14 127 68 54 60 59 97 18 140 -21 22 -24 31 -15 40 10 10 17 10 32 0 42
-26 75 -15 125 40 54 60 68 89 59 123 -3 13 -70 87 -149 164 -128 126 -148
141 -177 140 -18 0 -39 -3 -46 -6z m159 -141 c57 -59 121 -121 143 -139 43
-35 43 -35 -21 -108 -57 -63 -77 -57 -68 19 7 54 6 55 -33 98 l-41 43 -32 -32
c-41 -41 -35 -68 15 -59 24 5 37 2 46 -9 14 -17 -5 -49 -74 -130 l-35 -40 -23
22 c-22 22 -22 24 -5 53 36 61 -10 69 -50 9 -33 -50 -25 -83 27 -111 32 -18
46 -18 114 -6 10 2 23 -5 30 -14 9 -15 2 -27 -46 -75 l-56 -56 -151 144 c-83
79 -151 149 -151 154 0 19 23 35 50 35 29 0 63 33 153 146 48 60 57 78 57 111
0 83 28 73 151 -55z"></path>
<path d="M1132 5839 c-70 -67 -137 -134 -149 -148 -45 -52 -20 -124 47 -138
47 -9 172 -161 184 -223 13 -70 72 -100 126 -64 44 29 281 268 291 293 21 53
-78 191 -138 191 -15 0 -37 -9 -49 -21 -23 -21 -44 -19 -44 5 0 8 7 19 15 26
28 23 18 74 -26 129 -83 105 -99 101 -257 -50z m212 27 c50 -58 53 -67 32 -85
-12 -10 -20 -9 -40 4 -33 22 -60 14 -109 -30 l-39 -34 29 -36 c38 -48 58 -43
58 15 0 38 3 45 22 48 16 2 35 -14 78 -68 53 -66 56 -73 41 -88 -13 -14 -21
-14 -49 -4 -42 15 -57 15 -57 0 0 -15 70 -88 85 -88 6 0 24 14 41 31 25 26 30
40 34 102 7 96 23 99 84 13 l46 -65 -146 -143 c-80 -79 -150 -145 -155 -146
-20 -8 -41 22 -35 50 5 23 -6 42 -73 125 -96 121 -107 131 -151 135 -65 6 -51
29 102 178 79 76 146 139 150 140 3 0 27 -24 52 -54z"></path>
<path d="M6224 5248 c-11 -13 -28 -35 -36 -49 -9 -14 -54 -52 -100 -83 -69
-47 -90 -56 -126 -56 -35 0 -49 -6 -73 -29 -16 -16 -29 -36 -29 -45 0 -19 90
-191 145 -277 24 -37 58 -78 76 -91 99 -74 232 -59 340 39 79 71 107 175 74
275 -20 63 -140 284 -172 316 -13 12 -34 22 -51 22 -17 0 -36 -9 -48 -22z m78
-45 c8 -16 40 -74 72 -130 61 -108 86 -175 86 -230 0 -110 -121 -223 -240
-223 -91 0 -142 45 -219 191 -24 46 -55 100 -67 119 -28 40 -30 62 -9 80 13
10 20 11 39 1 27 -15 58 -1 186 88 58 40 85 64 85 78 0 24 22 53 40 53 8 0 20
-12 27 -27z"></path>
<path d="M6197 4929 c-60 -39 -111 -77 -114 -85 -9 -24 36 -64 72 -64 67 0
185 104 185 163 0 30 -14 57 -30 57 -3 0 -54 -32 -113 -71z m35 -59 c-30 -28
-62 -39 -62 -22 0 11 63 51 80 51 9 0 2 -11 -18 -29z"></path>
<path d="M645 5158 c-96 -137 -117 -175 -132 -239 -10 -44 -11 -70 -3 -106 36
-158 211 -280 349 -243 86 23 200 162 232 282 11 41 11 52 -4 82 -19 41 -90
96 -122 96 -12 0 -35 -10 -50 -22 -26 -20 -27 -24 -21 -83 5 -49 3 -65 -8 -75
-29 -23 -119 15 -152 65 -21 32 -12 43 47 56 122 28 120 142 -3 193 -56 24
-114 21 -133 -6z m112 -35 c51 -23 73 -42 73 -64 0 -21 -28 -39 -62 -39 -13
-1 -39 -9 -58 -18 -73 -36 -44 -126 59 -181 73 -39 122 -41 156 -6 27 27 32
63 14 114 -10 27 -9 36 4 48 15 15 20 13 61 -21 35 -28 46 -44 46 -65 0 -47
-65 -162 -125 -221 l-56 -55 -67 1 c-59 0 -73 4 -114 32 -148 102 -176 234
-78 370 22 31 47 72 55 90 18 37 36 40 92 15z"></path>
<path d="M1286 4243 c1 -59 5 -88 13 -87 6 1 1001 2 2211 3 l2201 1 -3 83 -3
82 -2210 3 -2210 2 1 -87z m4372 6 c2 -14 -3 -31 -11 -37 -11 -9 -536 -11
-2158 -10 l-2144 3 -3 23 c-2 13 -1 30 2 38 5 12 299 14 2158 12 l2153 -3 3
-26z"></path>
<path d="M2406 4038 c-3 -7 -6 -22 -8 -33 -3 -16 -10 -19 -40 -17 -47 4 -57
-13 -18 -33 32 -17 36 -26 20 -56 -17 -31 -2 -41 30 -18 l28 22 30 -21 c36
-26 44 -20 30 21 -10 28 -9 32 17 53 31 25 23 34 -25 31 -20 -2 -25 4 -30 27
-5 31 -27 46 -34 24z"></path>
<path d="M5039 3862 c-182 -196 -198 -215 -201 -243 -3 -23 0 -24 51 -24 l54
0 -2 -215 -1 -215 37 -55 c57 -82 120 -111 260 -117 99 -5 113 -3 168 20 l60
25 3 78 c2 42 -1 81 -7 87 -6 6 -21 0 -41 -14 -44 -33 -164 -35 -207 -3 l-28
21 0 194 0 194 140 1 140 0 3 82 3 81 -143 3 -143 3 -2 118 c0 65 -3 120 -5
122 -1 2 -64 -63 -139 -143z m115 -18 c3 -43 11 -83 17 -90 8 -10 42 -14 129
-14 135 0 143 -4 138 -72 l-3 -43 -121 -3 c-167 -4 -159 8 -159 -227 0 -169 2
-185 20 -205 44 -48 88 -57 230 -47 29 2 30 0 30 -37 0 -30 -6 -43 -25 -57
-39 -29 -119 -40 -208 -29 -96 12 -158 43 -197 99 l-30 43 -3 211 c-3 233 -7
247 -64 247 -56 0 -36 29 151 223 42 42 78 77 82 77 3 0 9 -34 13 -76z"></path>
<path d="M1534 3991 c-2 -2 -4 -224 -4 -493 l0 -488 130 0 130 0 -2 493 -3
492 -123 0 c-68 0 -125 -2 -128 -4z m224 -480 c1 -327 -1 -458 -9 -467 -15
-18 -160 -19 -177 -2 -9 9 -12 126 -12 463 0 249 3 455 7 459 4 4 48 5 98 4
l90 -3 3 -454z"></path>
<path d="M2173 3968 c-8 -30 -12 -33 -46 -30 -45 3 -47 -7 -7 -36 26 -20 28
-25 19 -49 -12 -31 2 -51 21 -28 16 19 40 19 68 -1 31 -21 47 -9 28 22 -22 33
-20 41 14 59 39 20 29 37 -18 33 -33 -3 -37 0 -42 26 -7 41 -25 43 -37 4z"></path>
<path d="M2640 3983 c0 -27 -19 -43 -51 -43 -40 0 -43 -14 -8 -39 25 -19 28
-25 18 -42 -6 -11 -8 -28 -5 -36 6 -14 8 -14 24 1 23 20 56 21 72 1 19 -22 35
-3 19 22 -16 27 -6 51 27 64 34 12 22 26 -26 31 -27 2 -35 8 -40 27 -7 30 -30
40 -30 14z"></path>
<path d="M3065 3978 c-3 -7 -4 -229 -3 -493 l3 -480 108 -3 107 -3 1 158 c1
215 -2 417 -7 422 -10 11 -12 -20 -20 -274 l-9 -270 -75 0 -75 0 0 460 0 460
81 3 82 3 178 -243 c203 -279 226 -308 237 -308 18 0 2 28 -67 123 -198 270
-245 333 -290 393 l-48 64 -100 0 c-70 0 -100 -4 -103 -12z"></path>
<path d="M3707 3984 c-9 -9 -9 -480 -1 -523 16 -79 24 -10 26 232 l3 262 75 0
75 0 0 -460 0 -460 -61 -3 -61 -3 -218 281 c-120 154 -224 280 -232 280 -19 0
-13 -9 235 -328 l204 -263 81 3 82 3 0 490 0 490 -101 3 c-55 1 -103 0 -107
-4z"></path>
<path d="M2796 3795 c-15 -34 -17 -36 -51 -29 -44 8 -47 -9 -5 -31 33 -17 36
-26 19 -57 -14 -26 3 -45 21 -23 16 20 49 19 71 -1 25 -23 43 -9 24 19 -22 31
-19 45 15 62 36 19 29 39 -10 32 -30 -6 -50 8 -50 34 0 33 -19 30 -34 -6z"></path>
<path d="M2013 3789 c-11 -27 -15 -30 -42 -24 -39 8 -48 -10 -15 -31 23 -16
25 -22 20 -56 -7 -40 3 -49 24 -23 18 22 57 19 70 -5 17 -31 31 -14 24 29 -5
33 -3 40 20 55 32 20 24 40 -11 31 -29 -7 -53 9 -53 36 0 30 -24 22 -37 -12z"></path>
<path d="M4315 3753 c-27 -9 -68 -24 -90 -34 -41 -18 -117 -88 -140 -130 -48
-85 -57 -117 -62 -207 -6 -89 -5 -94 27 -158 18 -37 48 -84 67 -105 37 -41
119 -87 198 -112 70 -22 253 -21 337 3 152 43 158 49 158 157 0 83 -7 98 -32
65 -53 -71 -183 -117 -293 -102 -82 10 -123 30 -167 79 -33 36 -38 47 -38 91
l0 50 273 2 272 3 3 43 c4 51 -28 151 -63 197 -14 17 -25 36 -25 42 0 9 -30
34 -95 79 -72 49 -233 67 -330 37z m217 -24 c67 -14 125 -47 170 -97 50 -55
89 -141 91 -199 l2 -48 -258 -5 c-241 -5 -260 -6 -273 -24 -49 -68 22 -194
132 -236 100 -37 261 -19 342 38 35 25 42 21 42 -28 0 -45 -10 -54 -84 -80
-196 -67 -422 -36 -545 75 -23 21 -54 65 -72 103 -29 61 -31 70 -27 156 5 107
31 168 104 246 87 93 227 130 376 99z"></path>
<path d="M4366 3640 c-75 -23 -126 -133 -79 -171 23 -20 295 -18 319 2 21 17
14 77 -15 117 -37 53 -142 77 -225 52z m135 -20 c48 -13 88 -57 91 -100 l3
-35 -150 0 -150 0 2 34 c3 77 106 128 204 101z"></path>
<path d="M5 3741 c-3 -5 -1 -12 5 -16 5 -3 238 -7 517 -8 l508 -2 0 -60 0 -60
-509 -2 c-327 -1 -513 -6 -519 -12 -7 -7 -6 -12 4 -16 8 -3 248 -4 534 -3
l520 3 0 90 0 90 -527 3 c-321 1 -529 -1 -533 -7z"></path>
<path d="M5940 3660 l0 -90 526 0 c476 0 526 2 520 16 -3 9 -6 16 -6 17 0 1
-223 1 -496 -1 -363 -2 -500 1 -510 9 -8 6 -14 28 -14 49 0 21 6 43 14 49 10
8 147 11 510 9 497 -3 506 -3 506 28 0 2 -236 4 -525 4 l-525 0 0 -90z"></path>
<path d="M1953 3560 c-10 -26 -17 -30 -47 -30 -46 0 -54 -15 -16 -35 32 -16
40 -51 18 -73 -8 -8 -9 -15 -2 -22 7 -7 16 -4 29 10 22 24 43 25 73 4 31 -21
38 -12 22 27 -13 30 -12 33 13 51 32 24 27 38 -14 38 -24 0 -32 6 -40 30 -6
17 -14 30 -18 30 -4 0 -12 -13 -18 -30z"></path>
<path d="M2855 3576 c-3 -9 -7 -23 -10 -31 -3 -10 -17 -15 -40 -15 -40 0 -46
-16 -11 -30 34 -12 40 -27 22 -52 -9 -12 -16 -26 -16 -30 0 -14 27 -9 40 7 17
21 44 19 65 -5 25 -27 40 -11 23 25 -11 25 -10 29 15 49 36 29 34 34 -10 38
-30 2 -38 8 -43 27 -7 29 -28 39 -35 17z"></path>
<path d="M15 3450 c-12 -20 16 -415 35 -491 6 -24 17 -82 24 -129 13 -81 46
-225 83 -355 9 -33 39 -116 65 -185 27 -69 56 -145 65 -170 20 -59 146 -302
213 -410 160 -260 321 -467 526 -675 120 -121 307 -283 399 -346 28 -19 67
-48 89 -64 110 -85 564 -327 694 -370 26 -9 61 -22 77 -30 17 -7 44 -17 60
-21 17 -4 35 -10 40 -14 18 -13 106 -39 270 -79 140 -34 191 -45 280 -58 11
-1 65 -10 120 -19 146 -25 719 -25 890 -1 241 35 619 123 670 157 6 4 39 17
75 29 273 96 629 282 830 434 52 39 110 82 129 95 36 25 152 127 279 247 138
130 415 463 477 573 8 15 44 72 80 127 70 109 197 350 226 430 9 28 27 75 39
105 62 161 83 226 124 393 25 100 49 214 55 252 5 39 16 108 24 155 13 72 28
263 31 388 l1 34 -525 -1 -525 0 -7 -38 c-4 -21 -7 -75 -7 -120 -1 -141 -73
-460 -151 -666 -47 -125 -128 -288 -200 -402 -27 -44 -53 -87 -57 -95 -13 -30
-121 -168 -210 -269 -240 -272 -645 -546 -968 -655 -44 -15 -89 -31 -100 -36
-45 -20 -278 -72 -445 -99 -226 -36 -607 -14 -845 50 -44 11 -98 25 -120 30
-22 5 -49 14 -60 19 -11 5 -63 23 -115 41 -188 62 -473 223 -658 369 -382 303
-652 682 -809 1140 -66 193 -121 471 -124 624 -1 34 -4 71 -8 84 l-6 23 -513
2 c-283 1 -515 0 -517 -3z m981 -54 c6 -2 14 -45 17 -98 14 -213 64 -432 153
-672 62 -167 110 -266 200 -414 337 -554 888 -963 1519 -1127 219 -57 372 -77
605 -77 237 -1 370 15 603 73 325 81 634 230 917 444 126 94 350 316 445 440
80 104 205 305 270 436 123 244 245 690 245 894 0 41 5 78 13 88 11 16 49 17
477 15 l465 -3 -3 -140 c-8 -361 -154 -919 -332 -1275 -297 -592 -795 -1127
-1345 -1447 -389 -226 -819 -377 -1265 -445 -140 -21 -188 -23 -490 -23 -301
0 -349 3 -475 23 -243 40 -511 108 -692 177 -544 205 -989 501 -1355 902 -272
298 -530 700 -653 1018 -26 66 -59 154 -75 195 -39 100 -95 327 -131 530 -33
187 -57 464 -41 483 8 9 119 11 464 9 249 -1 458 -4 464 -6z"></path>
<path d="M6222 2667 c-20 -24 -62 -122 -62 -145 0 -30 15 -60 52 -98 16 -18
26 -34 21 -37 -4 -3 -35 -10 -67 -16 -34 -6 -69 -20 -82 -32 -23 -21 -64 -117
-64 -150 0 -11 -13 -25 -30 -34 -29 -15 -169 -215 -191 -272 -5 -13 -22 -28
-37 -34 -29 -10 -213 -214 -240 -266 -8 -14 -11 -36 -8 -49 5 -20 3 -24 -17
-24 -26 0 -133 -75 -166 -116 -12 -15 -24 -39 -28 -53 -9 -39 -22 -51 -55 -51
-17 0 -52 -15 -85 -37 -57 -39 -67 -45 -189 -120 -39 -24 -76 -54 -82 -67 -7
-16 -21 -25 -44 -29 -110 -16 -210 -89 -224 -163 -9 -50 10 -122 42 -155 16
-16 24 -37 24 -60 0 -45 38 -110 74 -128 25 -11 36 -11 93 8 80 27 148 72 170
114 33 64 15 158 -41 211 -29 27 -42 84 -21 92 22 9 104 -26 136 -58 16 -17
29 -40 29 -54 0 -39 27 -81 55 -88 55 -14 215 93 215 144 0 14 -16 39 -44 64
-66 62 -68 68 -50 184 3 17 10 32 16 32 18 0 87 -60 94 -83 12 -40 46 -79 81
-94 32 -13 38 -12 78 7 93 45 174 142 175 209 0 44 -40 110 -86 142 -53 36
-60 69 -15 69 20 0 35 8 50 28 l20 27 40 -40 c23 -21 41 -44 41 -50 0 -22 46
-55 77 -55 25 0 41 11 83 58 72 79 86 111 69 148 -9 18 -28 34 -55 44 -23 8
-56 27 -74 41 l-33 27 21 27 c12 15 22 41 22 56 0 16 2 29 5 29 20 0 138 -88
150 -111 17 -31 51 -45 90 -35 36 9 198 257 199 303 0 40 -38 83 -96 109 -38
17 -42 17 -69 1 -27 -15 -29 -15 -29 2 0 10 -9 30 -20 44 -11 14 -20 30 -20
36 0 36 135 -23 195 -84 24 -25 50 -45 58 -45 44 0 107 96 107 162 0 18 10 42
25 60 14 16 25 41 25 56 0 14 9 35 19 46 25 27 81 157 81 189 0 37 -39 67 -87
67 -66 0 -183 44 -211 80 -19 24 -31 30 -62 30 -20 0 -42 -6 -48 -13z m78 -57
c5 -22 21 -30 114 -62 84 -29 113 -35 128 -27 14 7 23 7 33 -1 15 -12 12 -26
-24 -105 -10 -22 -21 -48 -25 -58 -8 -26 -40 -17 -44 11 -3 18 -19 30 -65 52
-34 15 -65 25 -70 23 -4 -2 27 -44 69 -94 45 -52 74 -95 71 -103 -4 -10 -36
-16 -117 -21 -70 -5 -110 -11 -107 -18 1 -5 27 -19 55 -30 46 -17 56 -18 78
-7 42 23 50 1 23 -67 -13 -32 -26 -62 -31 -67 -10 -13 -36 11 -40 36 -2 13
-27 33 -73 57 -93 50 -143 67 -158 52 -31 -31 -73 5 -43 38 9 9 19 32 22 49 4
17 12 36 18 41 7 6 54 15 106 21 94 11 110 15 110 29 0 5 -30 41 -66 80 l-67
72 17 37 c8 20 20 50 26 65 13 36 51 34 60 -3z m-230 -526 c59 -42 55 -66 -8
-57 -35 5 -41 2 -66 -31 -31 -41 -29 -61 9 -78 34 -15 52 1 34 31 -12 18 -11
23 3 37 15 16 20 14 73 -20 60 -40 70 -69 25 -74 -53 -6 -57 -12 -25 -38 44
-35 62 -31 87 21 22 44 22 46 4 76 -17 28 -17 33 -3 46 14 14 20 13 59 -17 24
-19 47 -37 51 -40 4 -4 -33 -69 -83 -144 -65 -98 -96 -136 -108 -134 -9 2 -18
12 -20 23 -6 31 -18 41 -112 99 -65 41 -93 53 -113 49 -39 -8 -45 19 -15 65
60 91 98 151 98 157 0 10 43 65 52 65 4 0 31 -16 58 -36z m-243 -310 c24 -20
42 -41 40 -48 -2 -6 -25 -11 -53 -11 -75 0 -69 -21 33 -103 65 -53 93 -70 108
-66 13 3 27 -1 34 -10 12 -14 8 -22 -25 -59 -22 -23 -49 -55 -61 -72 -18 -25
-25 -28 -40 -19 -10 6 -20 23 -23 38 -5 28 -149 156 -176 156 -22 0 -28 -26
-10 -52 20 -28 20 -47 1 -54 -16 -7 -108 62 -103 77 4 10 221 259 227 259 2 0
24 -16 48 -36z m-287 -343 c38 -34 43 -41 31 -55 -9 -11 -28 -15 -61 -14 -49
2 -80 -13 -80 -38 0 -23 18 -25 65 -9 25 8 66 15 92 15 39 0 50 -5 79 -36 40
-42 45 -85 14 -137 -21 -35 -127 -117 -152 -117 -22 0 -70 56 -66 77 3 15 12
18 55 15 42 -3 55 1 79 22 26 22 27 26 14 40 -14 14 -21 14 -68 -4 -29 -11
-68 -20 -86 -20 -45 0 -92 40 -107 89 -18 60 1 103 66 151 30 22 56 44 60 50
10 15 17 12 65 -29z m-264 -196 c4 -8 2 -21 -4 -28 -6 -7 -15 -50 -22 -95
l-11 -83 31 -50 c19 -28 40 -49 50 -49 21 0 44 -25 36 -38 -12 -20 -147 -94
-161 -88 -9 3 -15 18 -15 38 0 54 -41 102 -115 137 -36 17 -79 31 -95 31 -38
0 -52 27 -24 47 111 77 158 102 171 91 8 -6 11 -18 8 -26 -5 -15 30 -62 47
-62 17 0 7 64 -14 87 -25 26 -22 31 42 77 41 28 68 32 76 11z m-368 -323 c-3
-14 -16 -17 -73 -17 -63 0 -70 -2 -70 -20 0 -17 7 -19 75 -20 88 0 124 -17
146 -70 25 -60 18 -94 -25 -135 -35 -34 -138 -80 -178 -80 -7 0 -23 20 -35 45
-28 58 -17 74 39 57 75 -22 80 -23 103 -4 37 30 17 42 -71 42 -75 0 -82 2
-109 28 -19 20 -31 44 -35 77 -11 68 11 109 72 136 27 12 59 28 73 35 23 13
27 11 58 -22 18 -19 32 -43 30 -52z"></path>
<path d="M754 2615 c-48 -52 -115 -78 -201 -80 -82 -1 -113 -19 -113 -66 0
-35 41 -129 63 -148 10 -7 17 -28 17 -46 0 -18 9 -44 20 -58 11 -14 20 -36 20
-50 0 -42 50 -160 81 -192 16 -17 29 -42 29 -55 0 -33 57 -118 91 -136 21 -11
29 -22 29 -42 0 -42 103 -190 138 -198 48 -10 52 -13 52 -37 0 -15 20 -46 53
-82 45 -50 59 -59 97 -64 45 -6 45 -6 50 -51 8 -59 25 -88 56 -96 37 -10 77
14 172 100 45 42 95 79 110 82 39 10 72 43 72 75 0 17 -16 47 -45 83 -44 53
-58 62 -115 68 -22 3 -26 9 -32 52 -9 65 -65 126 -115 126 -41 0 -73 -30 -73
-68 0 -41 -106 -142 -149 -142 -57 0 -58 -2 77 219 62 101 66 134 22 185 -17
19 -44 37 -59 41 -17 3 -82 -5 -152 -19 -133 -28 -174 -32 -184 -16 -3 5 27
26 67 46 60 30 79 35 113 31 45 -7 76 8 96 44 8 16 6 35 -12 85 -28 80 -62
114 -120 121 -73 8 -73 9 -29 64 22 28 40 61 40 75 0 37 -40 135 -66 161 -32
32 -61 29 -100 -12z m73 -17 c4 -7 15 -33 24 -58 9 -25 19 -52 22 -60 4 -10
-18 -43 -63 -95 -44 -50 -66 -83 -60 -89 5 -5 44 -11 87 -13 98 -5 124 -18
138 -65 5 -20 13 -40 18 -44 13 -13 8 -44 -9 -51 -8 -3 -26 0 -39 7 -22 12
-35 8 -126 -36 -70 -34 -104 -56 -110 -71 -16 -42 -50 -25 -63 32 -4 16 -17
49 -28 73 -18 40 -18 46 -4 60 14 14 17 14 34 -1 21 -19 43 -22 57 -8 6 5 25
13 44 18 68 17 45 30 -71 39 -93 7 -113 12 -116 26 -2 9 28 51 67 96 39 44 71
83 71 86 0 10 -20 7 -58 -10 -61 -26 -67 -31 -65 -52 1 -11 -5 -26 -13 -33
-14 -11 -19 -10 -35 10 -11 13 -19 29 -19 36 0 6 -7 27 -16 44 -15 30 -15 34
0 49 12 13 19 13 28 4 16 -16 82 -15 121 2 18 7 54 22 82 32 33 13 51 26 53
39 6 36 11 45 26 45 8 0 18 -6 23 -12z m302 -637 c28 -38 27 -43 -14 -100 -19
-26 -35 -51 -35 -55 0 -4 -8 -19 -19 -34 -58 -83 -81 -126 -81 -146 0 -27 -24
-51 -40 -41 -6 3 -33 40 -61 81 -57 86 -58 109 -4 98 45 -8 45 6 1 66 -35 48
-61 58 -61 25 0 -22 -12 -45 -24 -45 -14 0 -82 113 -77 127 6 15 38 17 52 3 7
-7 54 0 139 19 173 39 198 39 224 2z m193 -233 c22 -30 26 -46 32 -163 4 -71
10 -132 13 -135 3 -3 18 11 34 30 25 30 29 41 24 72 -6 31 -3 39 11 45 13 5
30 -8 65 -48 57 -64 59 -84 8 -84 -31 -1 -49 -13 -138 -95 -57 -52 -110 -95
-119 -95 -15 0 -18 20 -27 148 l-10 148 -34 -35 c-30 -30 -33 -39 -27 -70 12
-61 -17 -58 -81 7 -66 65 -66 87 -2 87 38 0 48 6 116 72 68 66 74 75 69 104
-11 55 28 62 66 12z"></path>
<path d="M953 1909 c-42 -12 -45 -20 -23 -49 l19 -25 32 31 c17 18 28 37 25
43 -8 13 -9 13 -53 0z"></path>
<path d="M1652 1375 c-18 -8 -78 -40 -133 -71 -54 -31 -118 -60 -141 -66 -56
-12 -78 -33 -78 -74 0 -26 9 -41 50 -77 28 -25 64 -49 81 -52 19 -4 33 -15 37
-27 2 -11 41 -49 86 -84 61 -48 89 -64 113 -64 44 0 73 39 73 97 0 24 14 98
30 163 37 148 38 188 5 224 -21 23 -64 47 -83 46 -4 -1 -22 -7 -40 -15z m84
-58 c30 -26 31 -16 -24 -230 -19 -72 -29 -129 -25 -147 9 -48 -18 -47 -79 2
-29 24 -66 53 -83 64 -25 19 -27 24 -16 38 7 9 24 16 37 16 39 0 36 17 -11 55
-52 43 -78 42 -69 -3 10 -47 -12 -47 -72 -1 -64 49 -67 72 -12 77 22 2 80 27
145 64 152 85 157 88 170 88 7 0 24 -10 39 -23z"></path>
<path d="M1583 1220 c-18 -11 -33 -24 -33 -28 0 -10 33 -42 43 -42 9 0 37 56
37 75 0 20 -8 19 -47 -5z"></path>
<path d="M1902 1114 c-119 -59 -175 -209 -121 -322 28 -57 94 -105 189 -137
95 -32 125 -32 153 0 12 14 44 48 71 75 44 46 48 53 42 85 -5 25 -1 45 14 74
21 42 26 96 11 120 -5 7 -24 23 -44 35 -19 11 -52 33 -73 47 -85 56 -161 64
-242 23z m158 -34 c19 -5 55 -26 79 -45 24 -19 52 -35 63 -35 10 0 21 -7 25
-16 6 -16 -22 -89 -43 -113 -18 -20 -40 0 -48 44 -7 34 -64 95 -89 95 -39 0
-107 -114 -107 -180 0 -35 25 -58 48 -44 30 19 37 41 23 67 -7 14 -10 30 -7
36 9 14 53 14 61 1 4 -6 33 -24 65 -40 32 -16 62 -34 65 -40 9 -15 -13 -40
-35 -40 -22 0 -60 -45 -60 -72 0 -23 -27 -35 -49 -21 -9 6 -41 17 -72 26 -70
21 -137 69 -155 112 -28 67 -13 147 38 209 50 61 115 79 198 56z"></path>
<path d="M2315 945 c-20 -19 -25 -34 -25 -75 0 -62 -40 -162 -81 -205 -34 -36
-39 -85 -11 -113 24 -24 277 -125 313 -125 36 0 66 26 90 78 23 49 24 88 4
105 -21 18 -19 29 9 40 14 5 32 21 42 34 22 34 38 22 30 -23 -16 -101 -28
-135 -57 -168 -31 -36 -34 -68 -7 -101 18 -21 117 -45 164 -38 31 4 45 1 55
-10 10 -12 24 -15 57 -10 30 4 50 1 67 -10 61 -40 194 -56 234 -28 20 14 22
22 16 58 -9 59 -9 92 0 168 8 66 24 96 45 83 16 -10 13 -186 -5 -228 -10 -25
-12 -43 -6 -59 19 -50 32 -53 218 -53 l175 0 25 29 c24 29 25 29 53 13 50 -30
187 -12 219 29 23 29 24 29 78 3 93 -45 130 8 112 157 -6 47 -8 88 -6 91 3 2
30 6 60 7 l55 3 11 -44 c6 -23 8 -60 5 -82 -13 -79 51 -100 180 -61 95 30 121
78 73 137 -22 25 -47 83 -47 105 0 5 15 15 34 23 50 21 63 61 41 127 -34 105
-54 109 -271 42 -82 -25 -187 -52 -234 -59 -47 -8 -87 -14 -88 -14 -2 -1 -17
-15 -33 -33 l-30 -31 -40 23 c-48 26 -126 24 -158 -4 -16 -15 -21 -15 -47 -1
-35 18 -293 21 -342 4 -23 -8 -41 -7 -77 5 -25 9 -69 16 -97 16 -49 0 -54 -3
-101 -51 -27 -28 -52 -47 -56 -43 -4 5 -13 28 -19 51 -7 22 -20 51 -30 63 -22
27 -144 62 -189 54 -26 -5 -37 -2 -50 15 -17 19 -288 131 -319 131 -8 0 -26
-11 -39 -25z m87 -41 c16 -8 49 -22 72 -29 177 -57 182 -62 154 -138 -26 -69
-58 -75 -58 -12 0 26 -7 38 -29 54 -44 32 -73 31 -85 -2 -14 -38 6 -58 33 -33
35 32 64 3 43 -42 -5 -9 -17 -35 -28 -57 -22 -45 -47 -53 -52 -15 -6 47 -11
55 -26 39 -8 -8 -17 -28 -21 -46 -5 -25 -2 -34 17 -47 31 -22 73 -20 108 6 46
33 59 13 32 -49 -29 -68 -39 -71 -116 -40 -83 34 -185 74 -208 81 -25 8 -23
47 3 53 20 6 34 31 83 150 20 48 25 72 20 103 -8 46 5 51 58 24z m2081 -94
c18 -73 19 -88 6 -95 -7 -5 -22 4 -38 24 -26 31 -54 40 -66 22 -6 -11 26 -137
49 -192 8 -20 25 -43 37 -51 29 -19 20 -45 -18 -53 -15 -4 -50 -13 -77 -21
-67 -21 -79 -14 -71 36 5 30 0 63 -20 128 -31 99 -46 122 -69 103 -8 -7 -16
-27 -18 -44 -2 -24 -8 -32 -23 -32 -16 0 -23 11 -34 53 -17 62 -13 67 55 86
27 8 74 22 104 31 30 9 75 23 100 30 62 19 73 15 83 -25z m-1668 -44 l60 -12
19 -60 c34 -111 49 -144 62 -144 8 0 14 4 14 9 0 6 17 30 38 55 20 25 44 55
53 68 15 20 24 23 75 20 32 -2 66 -8 76 -13 26 -14 22 -38 -7 -49 -27 -10 -28
-14 -45 -153 -12 -89 -11 -99 5 -117 10 -11 15 -26 12 -35 -7 -17 -49 -20 -75
-5 -9 5 -39 13 -67 18 -41 6 -51 11 -53 30 -2 16 3 25 21 31 19 8 26 21 35 67
7 31 10 60 6 63 -3 3 -17 -10 -32 -29 -14 -19 -50 -60 -79 -90 -39 -41 -55
-52 -63 -44 -6 6 -24 57 -38 113 -15 56 -32 103 -37 104 -6 1 -14 -27 -18 -62
-6 -51 -5 -67 8 -81 8 -9 15 -25 15 -35 0 -16 -6 -17 -56 -11 -88 10 -122 40
-74 66 24 13 43 46 46 80 1 14 9 56 19 94 16 70 16 70 -6 87 -14 10 -20 22
-16 33 7 19 21 19 102 2z m1273 -49 c2 -10 -4 -27 -13 -37 -16 -17 -16 -28 -5
-112 21 -166 23 -195 11 -202 -6 -4 -63 28 -126 70 -125 83 -145 86 -122 18
11 -31 20 -40 43 -44 29 -5 44 -34 27 -51 -5 -5 -41 -11 -81 -15 -61 -5 -73
-3 -78 11 -4 9 2 25 15 39 20 21 21 27 11 92 -20 141 -22 145 -47 155 -18 6
-23 15 -21 31 2 18 12 24 43 29 35 6 46 2 120 -47 44 -29 91 -62 105 -73 32
-26 43 -17 35 28 -8 44 -21 61 -47 61 -23 0 -34 26 -18 45 10 13 73 23 125 21
11 -1 21 -9 23 -19z m-463 -92 c0 -69 -17 -80 -45 -30 -16 28 -20 30 -75 30
l-59 0 0 -35 c0 -43 25 -52 59 -20 40 37 51 22 50 -66 0 -77 -1 -79 -25 -79
-17 0 -26 7 -30 25 -4 16 -13 25 -25 25 -16 0 -21 -8 -23 -38 -5 -55 12 -70
67 -64 36 4 52 12 73 38 36 43 50 30 46 -42 l-3 -54 -168 -3 c-147 -2 -168 -1
-174 14 -3 9 1 29 11 44 23 40 23 245 0 271 -9 10 -14 25 -10 34 5 13 28 15
168 13 l163 -3 0 -60z m91 -112 c7 -65 0 -113 -16 -113 -5 0 -12 11 -16 24 -7
29 -31 52 -58 57 -31 6 -30 27 2 43 17 9 35 29 41 48 10 28 13 30 26 17 8 -8
18 -42 21 -76z"></path>
<path d="M2485 3385 c-3 -8 -7 -22 -10 -30 -3 -10 -17 -15 -39 -15 -46 0 -54
-16 -16 -35 31 -16 39 -42 18 -63 -8 -8 -9 -15 -2 -22 7 -7 16 -4 29 10 23 25
30 25 62 0 32 -25 45 -17 32 18 -9 23 -7 30 15 49 36 30 33 43 -10 43 -31 0
-37 4 -47 30 -12 33 -25 39 -32 15z"></path>
<path d="M2795 3337 c-13 -32 -18 -35 -50 -33 -49 4 -52 -8 -9 -33 20 -12 34
-27 31 -34 -22 -60 -16 -74 18 -37 10 11 23 20 30 20 7 0 20 -9 30 -20 17 -18
45 -28 45 -15 0 3 -8 17 -17 32 -17 25 -16 26 11 50 16 13 27 25 25 26 -2 2
-17 7 -34 13 -16 5 -35 19 -41 32 -18 37 -23 37 -39 -1z"></path>
<path d="M1999 3331 c-11 -30 -15 -32 -50 -30 -52 4 -57 -5 -14 -31 29 -18 34
-26 29 -44 -3 -11 -10 -25 -15 -30 -5 -6 -9 -14 -9 -18 0 -15 27 -8 45 12 23
25 33 25 62 -1 19 -19 23 -20 29 -6 3 8 0 26 -7 38 -10 20 -8 25 22 50 19 16
30 29 24 30 -5 0 -26 1 -45 2 -26 2 -36 7 -38 22 -7 37 -21 40 -33 6z"></path>
<path d="M2172 3170 c-9 -26 -16 -30 -46 -30 -43 0 -45 -7 -9 -35 24 -20 25
-25 15 -52 -14 -41 -6 -47 29 -21 l29 22 29 -22 c35 -25 50 -13 27 20 -22 31
-20 35 14 53 40 21 38 33 -7 37 -30 2 -38 8 -43 27 -8 36 -26 36 -38 1z"></path>
<path d="M2635 3186 c-3 -9 -7 -23 -10 -31 -2 -8 -15 -16 -27 -17 -13 0 -27
-2 -33 -3 -5 -2 -14 -3 -20 -4 -5 0 6 -13 24 -28 30 -26 32 -30 21 -57 -13
-34 -6 -45 18 -28 33 24 44 24 72 3 35 -25 48 -12 23 25 -17 27 -17 27 17 55
19 16 32 29 30 30 -3 0 -18 2 -33 4 -33 4 -57 22 -57 41 0 20 -19 27 -25 10z"></path>
<path d="M2386 3087 c-12 -29 -18 -34 -45 -32 -43 3 -47 -10 -11 -32 28 -16
30 -21 25 -55 -8 -43 -1 -47 31 -17 l23 21 27 -21 c34 -27 53 -13 29 22 -15
24 -15 26 15 47 36 26 32 38 -9 32 -26 -4 -32 0 -45 32 -8 20 -17 36 -20 36
-3 0 -12 -15 -20 -33z"></path>
<path d="M2773 2968 c-8 -30 -12 -33 -46 -30 -44 3 -47 -9 -10 -36 24 -17 25
-22 15 -50 -14 -41 2 -51 33 -22 l24 22 30 -21 c35 -25 49 -13 26 23 -16 24
-16 26 13 43 38 24 35 38 -8 38 -30 0 -35 4 -40 29 -7 41 -25 43 -37 4z"></path>
<path d="M1286 2720 c-1 -3 -1 -27 2 -55 l4 -50 2206 2 2207 3 0 50 0 50
-2208 3 c-1215 1 -2210 0 -2211 -3z m4384 -35 c10 -12 10 -18 0 -30 -11 -13
-265 -15 -2177 -15 -1914 0 -2164 2 -2169 15 -4 8 -4 22 0 30 5 13 255 15
2169 15 1912 0 2166 -2 2177 -15z"></path>
</g>
</svg>