 <svg version="1.0" xmlns="http://www.w3.org/2000/svg" width="700.000000pt" height="590.000000pt" viewBox="0 0 700.000000 590.000000" preserveAspectRatio="xMidYMid meet">
<metadata>
Created by potrace 1.12, written by Peter Selinger 2001-2015
</metadata>
<g transform="translate(0.000000,590.000000) scale(0.100000,-0.100000)" fill="#ffffff" stroke="none">
<path d="M3700 5880 c0 -5 5 -10 10 -10 6 0 10 5 10 10 0 6 -4 10 -10 10 -5 0
-10 -4 -10 -10z"></path>
<path d="M4170 5880 c0 -5 9 -10 20 -10 11 0 20 5 20 10 0 6 -9 10 -20 10 -11
0 -20 -4 -20 -10z"></path>
<path d="M3540 5870 c0 -5 14 -10 30 -10 17 0 30 5 30 10 0 6 -13 10 -30 10
-16 0 -30 -4 -30 -10z"></path>
<path d="M4300 5870 c0 -5 14 -10 30 -10 17 0 30 5 30 10 0 6 -13 10 -30 10
-16 0 -30 -4 -30 -10z"></path>
<path d="M3440 5860 c0 -5 11 -10 25 -10 14 0 25 5 25 10 0 6 -11 10 -25 10
-14 0 -25 -4 -25 -10z"></path>
<path d="M4420 5860 c0 -5 9 -10 20 -10 11 0 20 5 20 10 0 6 -9 10 -20 10 -11
0 -20 -4 -20 -10z"></path>
<path d="M3350 5850 c0 -5 9 -10 20 -10 11 0 20 5 20 10 0 6 -9 10 -20 10 -11
0 -20 -4 -20 -10z"></path>
<path d="M4510 5850 c0 -5 9 -10 20 -10 11 0 20 5 20 10 0 6 -9 10 -20 10 -11
0 -20 -4 -20 -10z"></path>
<path d="M3270 5840 c0 -5 9 -10 20 -10 11 0 20 5 20 10 0 6 -9 10 -20 10 -11
0 -20 -4 -20 -10z"></path>
<path d="M4590 5840 c0 -5 7 -10 15 -10 8 0 15 5 15 10 0 6 -7 10 -15 10 -8 0
-15 -4 -15 -10z"></path>
<path d="M3210 5830 c0 -5 7 -10 15 -10 8 0 15 5 15 10 0 6 -7 10 -15 10 -8 0
-15 -4 -15 -10z"></path>
<path d="M4650 5830 c0 -5 9 -10 20 -10 11 0 20 5 20 10 0 6 -9 10 -20 10 -11
0 -20 -4 -20 -10z"></path>
<path d="M3150 5820 c0 -5 7 -10 15 -10 8 0 15 5 15 10 0 6 -7 10 -15 10 -8 0
-15 -4 -15 -10z"></path>
<path d="M4720 5820 c0 -5 7 -10 15 -10 8 0 15 5 15 10 0 6 -7 10 -15 10 -8 0
-15 -4 -15 -10z"></path>
<path d="M3100 5810 c0 -5 7 -10 15 -10 8 0 15 5 15 10 0 6 -7 10 -15 10 -8 0
-15 -4 -15 -10z"></path>
<path d="M4780 5810 c0 -5 7 -10 15 -10 8 0 15 5 15 10 0 6 -7 10 -15 10 -8 0
-15 -4 -15 -10z"></path>
<path d="M3050 5800 c0 -5 7 -10 15 -10 8 0 15 5 15 10 0 6 -7 10 -15 10 -8 0
-15 -4 -15 -10z"></path>
<path d="M4830 5800 c0 -5 7 -10 15 -10 8 0 15 5 15 10 0 6 -7 10 -15 10 -8 0
-15 -4 -15 -10z"></path>
<path d="M3000 5790 c0 -5 7 -10 15 -10 8 0 15 5 15 10 0 6 -7 10 -15 10 -8 0
-15 -4 -15 -10z"></path>
<path d="M4880 5790 c0 -5 7 -10 15 -10 8 0 15 5 15 10 0 6 -7 10 -15 10 -8 0
-15 -4 -15 -10z"></path>
<path d="M2950 5780 c0 -5 7 -10 15 -10 8 0 15 5 15 10 0 6 -7 10 -15 10 -8 0
-15 -4 -15 -10z"></path>
<path d="M4930 5780 c0 -5 7 -10 15 -10 8 0 15 5 15 10 0 6 -7 10 -15 10 -8 0
-15 -4 -15 -10z"></path>
<path d="M2900 5770 c0 -5 7 -10 15 -10 8 0 15 5 15 10 0 6 -7 10 -15 10 -8 0
-15 -4 -15 -10z"></path>
<path d="M4980 5770 c0 -5 5 -10 10 -10 6 0 10 5 10 10 0 6 -4 10 -10 10 -5 0
-10 -4 -10 -10z"></path>
<path d="M2860 5760 c0 -5 5 -10 10 -10 6 0 10 5 10 10 0 6 -4 10 -10 10 -5 0
-10 -4 -10 -10z"></path>
<path d="M5020 5760 c0 -5 5 -10 10 -10 6 0 10 5 10 10 0 6 -4 10 -10 10 -5 0
-10 -4 -10 -10z"></path>
<path d="M2820 5750 c0 -5 5 -10 10 -10 6 0 10 5 10 10 0 6 -4 10 -10 10 -5 0
-10 -4 -10 -10z"></path>
<path d="M5060 5750 c0 -5 5 -10 10 -10 6 0 10 5 10 10 0 6 -4 10 -10 10 -5 0
-10 -4 -10 -10z"></path>
<path d="M2780 5740 c0 -5 5 -10 10 -10 6 0 10 5 10 10 0 6 -4 10 -10 10 -5 0
-10 -4 -10 -10z"></path>
<path d="M5100 5740 c0 -5 5 -10 10 -10 6 0 10 5 10 10 0 6 -4 10 -10 10 -5 0
-10 -4 -10 -10z"></path>
<path d="M2728 5733 c-10 -2 -18 -9 -18 -15 0 -5 7 -7 16 -4 9 3 20 6 25 6 5
0 9 5 9 10 0 10 -3 11 -32 3z"></path>
<path d="M5140 5732 c0 -10 41 -24 49 -17 6 7 0 11 -26 19 -13 4 -23 3 -23 -2z"></path>
<path d="M2643 5708 c-18 -6 -33 -15 -33 -21 0 -5 7 -6 16 -3 9 3 27 9 40 12
13 3 24 10 24 15 0 11 -5 10 -47 -3z"></path>
<path d="M5210 5710 c0 -5 5 -10 10 -10 6 0 10 5 10 10 0 6 -4 10 -10 10 -5 0
-10 -4 -10 -10z"></path>
<path d="M5250 5702 c0 -10 260 -96 267 -88 7 7 11 5 -142 56 -134 45 -125 43
-125 32z"></path>
<path d="M2520 5669 c-83 -29 -83 -29 -77 -35 7 -8 147 38 147 48 0 11 -6 10
-70 -13z"></path>
<path d="M3460 5680 c0 -6 32 -10 75 -10 43 0 75 4 75 10 0 6 -32 10 -75 10
-43 0 -75 -4 -75 -10z"></path>
<path d="M3710 5680 c0 -6 30 -10 70 -10 40 0 70 4 70 10 0 6 -30 10 -70 10
-40 0 -70 -4 -70 -10z"></path>
<path d="M3340 5670 c0 -5 18 -10 40 -10 22 0 40 5 40 10 0 6 -18 10 -40 10
-22 0 -40 -4 -40 -10z"></path>
<path d="M3910 5670 c0 -5 16 -10 35 -10 19 0 35 5 35 10 0 6 -16 10 -35 10
-19 0 -35 -4 -35 -10z"></path>
<path d="M3220 5660 c0 -5 11 -10 25 -10 14 0 25 5 25 10 0 6 -11 10 -25 10
-14 0 -25 -4 -25 -10z"></path>
<path d="M4050 5660 c0 -5 11 -10 25 -10 14 0 25 5 25 10 0 6 -11 10 -25 10
-14 0 -25 -4 -25 -10z"></path>
<path d="M3130 5650 c0 -5 9 -10 20 -10 11 0 20 5 20 10 0 6 -9 10 -20 10 -11
0 -20 -4 -20 -10z"></path>
<path d="M4150 5650 c0 -5 9 -10 20 -10 11 0 20 5 20 10 0 6 -9 10 -20 10 -11
0 -20 -4 -20 -10z"></path>
<path d="M3050 5640 c0 -5 9 -10 20 -10 11 0 20 5 20 10 0 6 -9 10 -20 10 -11
0 -20 -4 -20 -10z"></path>
<path d="M4230 5640 c0 -5 9 -10 20 -10 11 0 20 5 20 10 0 6 -9 10 -20 10 -11
0 -20 -4 -20 -10z"></path>
<path d="M2990 5630 c0 -5 7 -10 15 -10 8 0 15 5 15 10 0 6 -7 10 -15 10 -8 0
-15 -4 -15 -10z"></path>
<path d="M4300 5630 c0 -5 7 -10 15 -10 8 0 15 5 15 10 0 6 -7 10 -15 10 -8 0
-15 -4 -15 -10z"></path>
<path d="M2383 5620 c-13 -5 -23 -12 -23 -16 0 -8 53 5 65 17 12 12 -12 11
-42 -1z"></path>
<path d="M2930 5620 c0 -5 7 -10 15 -10 8 0 15 5 15 10 0 6 -7 10 -15 10 -8 0
-15 -4 -15 -10z"></path>
<path d="M4360 5620 c0 -5 7 -10 15 -10 8 0 15 5 15 10 0 6 -7 10 -15 10 -8 0
-15 -4 -15 -10z"></path>
<path d="M2880 5610 c0 -5 5 -10 10 -10 6 0 10 5 10 10 0 6 -4 10 -10 10 -5 0
-10 -4 -10 -10z"></path>
<path d="M4420 5610 c0 -5 7 -10 15 -10 8 0 15 5 15 10 0 6 -7 10 -15 10 -8 0
-15 -4 -15 -10z"></path>
<path d="M2830 5600 c0 -5 7 -10 15 -10 8 0 15 5 15 10 0 6 -7 10 -15 10 -8 0
-15 -4 -15 -10z"></path>
<path d="M4470 5600 c0 -5 7 -10 15 -10 8 0 15 5 15 10 0 6 -7 10 -15 10 -8 0
-15 -4 -15 -10z"></path>
<path d="M5535 5600 c3 -5 13 -10 21 -10 8 0 12 5 9 10 -3 6 -13 10 -21 10 -8
0 -12 -4 -9 -10z"></path>
<path d="M2315 5590 c-3 -5 1 -10 9 -10 8 0 18 5 21 10 3 6 -1 10 -9 10 -8 0
-18 -4 -21 -10z"></path>
<path d="M2780 5590 c0 -5 7 -10 15 -10 8 0 15 5 15 10 0 6 -7 10 -15 10 -8 0
-15 -4 -15 -10z"></path>
<path d="M4520 5590 c0 -5 7 -10 15 -10 8 0 15 5 15 10 0 6 -7 10 -15 10 -8 0
-15 -4 -15 -10z"></path>
<path d="M2730 5580 c0 -5 7 -10 15 -10 8 0 15 5 15 10 0 6 -7 10 -15 10 -8 0
-15 -4 -15 -10z"></path>
<path d="M4570 5580 c0 -5 5 -10 10 -10 6 0 10 5 10 10 0 6 -4 10 -10 10 -5 0
-10 -4 -10 -10z"></path>
<path d="M5585 5580 c3 -5 13 -10 21 -10 8 0 12 5 9 10 -3 6 -13 10 -21 10 -8
0 -12 -4 -9 -10z"></path>
<path d="M2690 5570 c0 -5 5 -10 10 -10 6 0 10 5 10 10 0 6 -4 10 -10 10 -5 0
-10 -4 -10 -10z"></path>
<path d="M4610 5570 c0 -5 7 -10 15 -10 8 0 15 5 15 10 0 6 -7 10 -15 10 -8 0
-15 -4 -15 -10z"></path>
<path d="M2235 5560 c-3 -5 1 -10 9 -10 8 0 18 5 21 10 3 6 -1 10 -9 10 -8 0
-18 -4 -21 -10z"></path>
<path d="M2650 5560 c0 -5 5 -10 10 -10 6 0 10 5 10 10 0 6 -4 10 -10 10 -5 0
-10 -4 -10 -10z"></path>
<path d="M4660 5560 c0 -5 5 -10 10 -10 6 0 10 5 10 10 0 6 -4 10 -10 10 -5 0
-10 -4 -10 -10z"></path>
<path d="M5635 5560 c3 -5 13 -10 21 -10 8 0 12 5 9 10 -3 6 -13 10 -21 10 -8
0 -12 -4 -9 -10z"></path>
<path d="M2610 5550 c0 -5 5 -10 10 -10 6 0 10 5 10 10 0 6 -4 10 -10 10 -5 0
-10 -4 -10 -10z"></path>
<path d="M4700 5552 c0 -10 41 -24 49 -17 6 7 0 11 -26 19 -13 4 -23 3 -23 -2z"></path>
<path d="M2558 5543 c-10 -2 -18 -9 -18 -15 0 -5 7 -7 16 -4 9 3 20 6 25 6 5
0 9 5 9 10 0 10 -3 11 -32 3z"></path>
<path d="M5685 5540 c3 -5 13 -10 21 -10 8 0 12 5 9 10 -3 6 -13 10 -21 10 -8
0 -12 -4 -9 -10z"></path>
<path d="M2165 5530 c-3 -5 1 -10 9 -10 8 0 18 5 21 10 3 6 -1 10 -9 10 -8 0
-18 -4 -21 -10z"></path>
<path d="M4770 5532 c0 -10 41 -24 49 -17 6 7 0 11 -26 19 -13 4 -23 3 -23 -2z"></path>
<path d="M2488 5523 c-10 -2 -18 -9 -18 -15 0 -5 7 -7 16 -4 9 3 20 6 25 6 5
0 9 5 9 10 0 10 -3 11 -32 3z"></path>
<path d="M4840 5510 c0 -5 5 -10 10 -10 6 0 10 5 10 10 0 6 -4 10 -10 10 -5 0
-10 -4 -10 -10z"></path>
<path d="M2365 5484 c-99 -34 -98 -34 -92 -40 7 -8 177 48 177 58 0 11 -5 10
-85 -18z"></path>
<path d="M5775 5500 c3 -5 13 -10 21 -10 8 0 12 5 9 10 -3 6 -13 10 -21 10 -8
0 -12 -4 -9 -10z"></path>
<path d="M4910 5492 c0 -10 79 -36 87 -28 6 5 -16 15 -64 30 -13 4 -23 3 -23
-2z"></path>
<path d="M2021 5465 c-50 -27 -78 -51 -47 -39 38 15 116 54 116 59 0 11 -27 3
-69 -20z"></path>
<path d="M5015 5452 c13 -13 85 -35 92 -28 6 6 -31 22 -75 32 -18 4 -24 3 -17
-4z"></path>
<path d="M2213 5430 c-13 -5 -23 -12 -23 -16 0 -8 53 5 65 17 12 12 -12 11
-42 -1z"></path>
<path d="M3063 5419 c-487 -27 -974 -157 -1378 -368 -474 -248 -822 -589
-1008 -990 -41 -90 -100 -259 -111 -323 -12 -66 9 -41 28 35 152 591 758 1098
1571 1313 526 139 1138 139 1678 -1 602 -155 1108 -486 1385 -906 114 -173
193 -375 219 -564 10 -71 13 -119 7 -125 -5 -5 -40 -5 -89 2 -165 21 -426 -8
-605 -68 -383 -128 -666 -431 -810 -867 -18 -54 -34 -96 -36 -94 -2 2 -27 222
-55 488 -27 266 -52 490 -54 497 -3 9 -81 12 -342 12 l-338 -1 -166 -262
c-538 -850 -982 -1547 -985 -1544 -2 2 12 61 31 133 18 71 86 327 150 569 224
846 285 1082 285 1093 0 9 -77 12 -290 12 l-289 0 -11 -42 c-7 -24 -22 -81
-35 -128 -13 -47 -62 -233 -110 -415 -90 -341 -132 -496 -138 -501 -2 -2 -13
20 -25 49 -29 70 -413 1009 -419 1025 -4 9 -72 12 -294 12 l-288 0 -11 -42
c-6 -24 -15 -56 -20 -73 -8 -27 -158 -593 -375 -1420 -41 -154 -85 -323 -99
-375 -14 -52 -26 -98 -26 -102 0 -5 130 -8 289 -8 267 0 290 1 295 18 5 15 39
142 206 772 27 102 54 206 61 233 6 26 15 49 19 52 3 2 96 -215 205 -483 109
-268 208 -511 221 -540 l23 -52 575 0 575 0 92 170 91 170 348 0 347 0 8 -170
7 -170 324 0 325 0 -6 33 c-3 17 -9 69 -13 114 l-8 81 61 -56 c129 -121 260
-161 546 -169 201 -6 322 7 459 49 204 63 415 213 551 393 23 31 44 54 46 51
2 -2 -21 -100 -52 -217 -31 -118 -60 -229 -65 -247 l-8 -32 311 2 311 3 53
200 c30 110 91 344 138 520 46 176 114 433 150 570 126 477 185 703 185 714 0
7 -94 12 -307 13 -299 3 -308 4 -306 23 4 42 -19 205 -43 304 -78 329 -287
657 -584 913 -591 511 -1450 770 -2377 717z m598 -54 c620 -60 1180 -264 1616
-588 208 -155 428 -399 547 -605 107 -185 196 -483 196 -653 0 -28 7 -50 19
-63 19 -21 19 -22 -19 -171 -54 -205 -64 -238 -76 -242 -6 -2 -16 16 -23 39
-58 195 -208 342 -383 378 -55 11 -70 22 -48 35 27 17 -7 227 -61 382 -164
463 -585 868 -1159 1111 -600 254 -1346 316 -2017 166 -169 -37 -450 -132
-588 -199 -66 -31 -136 -63 -155 -71 l-35 -15 27 23 c73 62 369 207 573 281
278 101 643 178 945 200 135 10 503 5 641 -8z m1546 -2350 c91 -27 163 -126
163 -222 0 -18 1 -33 3 -33 2 0 111 24 242 54 275 62 290 65 289 51 -3 -25
-177 -684 -184 -695 -5 -8 -63 6 -206 51 -260 81 -240 78 -261 39 -73 -132
-173 -252 -249 -296 -66 -39 -142 -58 -234 -58 -107 -1 -164 19 -218 78 -41
45 -62 106 -62 185 0 118 73 398 141 539 71 147 209 269 348 308 64 17 168 17
228 -1z m-1869 -791 c-3 -2 -98 -3 -211 -2 l-207 3 91 160 c50 88 139 243 198
345 l106 185 14 -343 c7 -189 11 -345 9 -348z"></path>
<path d="M5125 5410 c3 -5 13 -10 21 -10 8 0 12 5 9 10 -3 6 -13 10 -21 10 -8
0 -12 -4 -9 -10z"></path>
<path d="M5970 5405 c6 -7 20 -15 31 -18 16 -4 18 -3 9 8 -6 7 -20 15 -31 18
-16 4 -18 3 -9 -8z"></path>
<path d="M5175 5390 c3 -5 13 -10 21 -10 8 0 12 5 9 10 -3 6 -13 10 -21 10 -8
0 -12 -4 -9 -10z"></path>
<path d="M1864 5380 c-12 -5 -25 -13 -28 -18 -9 -15 31 -2 45 14 13 16 12 16
-17 4z"></path>
<path d="M2075 5370 c-3 -5 1 -10 9 -10 8 0 18 5 21 10 3 6 -1 10 -9 10 -8 0
-18 -4 -21 -10z"></path>
<path d="M5245 5360 c3 -5 13 -10 21 -10 8 0 12 5 9 10 -3 6 -13 10 -21 10 -8
0 -12 -4 -9 -10z"></path>
<path d="M6055 5359 c4 -6 17 -15 28 -20 12 -5 36 -18 52 -29 17 -11 37 -23
45 -27 32 -14 140 -91 265 -187 192 -149 439 -402 511 -522 7 -10 15 -16 19
-12 25 24 -299 371 -475 510 -102 81 -321 232 -370 254 -8 4 -22 12 -30 19
-22 17 -52 27 -45 14z"></path>
<path d="M1790 5335 c-14 -8 -32 -17 -40 -21 -8 -4 -28 -17 -45 -28 -16 -12
-37 -26 -47 -31 -216 -131 -500 -384 -669 -597 -110 -140 -258 -378 -234 -378
2 0 32 40 65 90 148 220 416 493 620 631 19 13 51 36 71 52 20 15 39 27 43 27
4 0 22 10 39 23 45 31 69 46 94 56 11 6 24 14 27 19 9 15 -32 2 -45 -14 -6 -8
-16 -14 -21 -14 -5 0 -24 -11 -42 -25 -18 -14 -35 -25 -38 -25 -9 0 -93 -58
-198 -137 -100 -75 -257 -214 -291 -258 -20 -25 -39 -33 -39 -16 0 19 170 199
271 285 108 92 332 266 344 266 3 0 21 10 38 23 45 31 69 46 94 56 11 6 24 15
28 20 8 14 5 14 -25 -4z"></path>
<path d="M2005 5340 c-3 -5 1 -10 9 -10 8 0 18 5 21 10 3 6 -1 10 -9 10 -8 0
-18 -4 -21 -10z"></path>
<path d="M5384 5295 c11 -8 27 -15 35 -15 13 1 12 4 -3 15 -11 8 -27 15 -35
15 -13 -1 -12 -4 3 -15z"></path>
<path d="M5470 5255 c6 -7 20 -15 31 -18 16 -4 18 -3 9 8 -6 7 -20 15 -31 18
-16 4 -18 3 -9 -8z"></path>
<path d="M1804 5240 c-12 -5 -25 -13 -28 -18 -9 -15 31 -2 45 14 13 16 12 16
-17 4z"></path>
<path d="M5577 5199 c11 -11 35 -26 78 -49 11 -6 32 -18 46 -28 14 -9 52 -35
85 -57 201 -135 432 -347 575 -525 82 -104 159 -213 159 -228 0 -5 7 -15 15
-22 13 -11 14 -10 8 6 -19 45 -162 247 -238 334 -105 121 -297 296 -415 379
-104 74 -212 144 -240 157 -8 4 -22 12 -30 19 -8 7 -24 15 -35 19 -15 6 -17 4
-8 -5z"></path>
<path d="M6950 4530 c0 -5 5 -10 10 -10 6 0 10 5 10 10 0 6 -4 10 -10 10 -5 0
-10 -4 -10 -10z"></path>
<path d="M6940 4490 c0 -5 5 -10 10 -10 6 0 10 5 10 10 0 6 -4 10 -10 10 -5 0
-10 -4 -10 -10z"></path>
<path d="M6930 4450 c0 -5 5 -10 10 -10 6 0 10 5 10 10 0 6 -4 10 -10 10 -5 0
-10 -4 -10 -10z"></path>
<path d="M6917 4398 c-6 -21 -2 -36 7 -27 10 11 16 49 8 49 -5 0 -12 -10 -15
-22z"></path>
<path d="M6900 4340 c0 -5 5 -10 10 -10 6 0 10 5 10 10 0 6 -4 10 -10 10 -5 0
-10 -4 -10 -10z"></path>
<path d="M6890 4300 c0 -5 5 -10 10 -10 6 0 10 5 10 10 0 6 -4 10 -10 10 -5 0
-10 -4 -10 -10z"></path>
<path d="M6557 4251 c3 -11 11 -25 18 -31 11 -9 12 -7 8 9 -3 11 -11 25 -18
31 -11 9 -12 7 -8 -9z"></path>
<path d="M6867 4208 c-6 -21 -2 -36 7 -27 10 11 16 49 8 49 -5 0 -12 -10 -15
-22z"></path>
<path d="M6610 4149 c0 -8 7 -24 15 -35 11 -15 14 -16 15 -3 0 8 -7 24 -15 35
-11 15 -14 16 -15 3z"></path>
<path d="M6850 4150 c0 -5 5 -10 10 -10 6 0 10 5 10 10 0 6 -4 10 -10 10 -5 0
-10 -4 -10 -10z"></path>
<path d="M6837 4098 c-6 -21 -2 -36 7 -27 10 11 16 49 8 49 -5 0 -12 -10 -15
-22z"></path>
<path d="M6664 4028 c10 -44 26 -81 32 -75 3 3 1 23 -6 44 -15 46 -36 71 -26
31z"></path>
<path d="M6820 4040 c0 -5 5 -10 10 -10 6 0 10 5 10 10 0 6 -4 10 -10 10 -5 0
-10 -4 -10 -10z"></path>
<path d="M6352 4003 c-38 -7 -19 -27 27 -28 36 -1 62 9 50 19 -9 7 -56 12 -77
9z"></path>
<path d="M6810 4000 c0 -5 5 -10 10 -10 6 0 10 5 10 10 0 6 -4 10 -10 10 -5 0
-10 -4 -10 -10z"></path>
<path d="M6800 3960 c0 -5 5 -10 10 -10 6 0 10 5 10 10 0 6 -4 10 -10 10 -5 0
-10 -4 -10 -10z"></path>
<path d="M6357 3954 c-4 -4 -7 -84 -7 -177 l0 -169 -22 14 c-57 38 -94 175
-68 253 16 50 7 54 -21 8 -17 -27 -25 -57 -27 -106 -5 -83 14 -139 63 -187 36
-35 37 -50 4 -50 -10 0 -19 -4 -19 -10 0 -5 22 -10 48 -10 26 0 54 -6 61 -12
11 -10 14 -10 18 0 3 7 22 12 48 12 47 0 68 14 34 23 -21 6 -19 8 18 51 45 51
63 101 63 172 0 51 -26 120 -53 142 -14 12 -14 9 0 -35 25 -83 7 -161 -54
-234 l-28 -33 -5 175 c-5 166 -6 174 -25 177 -12 2 -24 0 -28 -4z"></path>
<path d="M6194 3921 c-62 -38 -101 -122 -90 -196 6 -38 61 -133 71 -123 2 2
-1 33 -7 68 -13 79 1 161 38 216 32 46 27 59 -12 35z"></path>
<path d="M6520 3934 c0 -3 11 -20 24 -37 13 -18 29 -50 36 -71 16 -49 16 -166
0 -196 -14 -27 -6 -37 15 -20 32 27 55 88 55 146 0 83 -43 152 -112 177 -10 3
-18 4 -18 1z"></path>
<path d="M6700 3926 c0 -9 5 -16 10 -16 6 0 10 4 10 9 0 6 -4 13 -10 16 -5 3
-10 -1 -10 -9z"></path>
<path d="M6790 3920 c0 -5 5 -10 10 -10 6 0 10 5 10 10 0 6 -4 10 -10 10 -5 0
-10 -4 -10 -10z"></path>
<path d="M6710 3888 c5 -35 39 -129 45 -127 7 1 40 95 45 127 0 1 -4 2 -9 2
-5 0 -12 -13 -16 -30 -4 -16 -13 -30 -20 -30 -7 0 -16 14 -20 30 -4 17 -11 30
-16 30 -5 0 -9 -1 -9 -2z"></path>
<path d="M550 3655 c0 -14 5 -25 10 -25 6 0 10 11 10 25 0 14 -4 25 -10 25 -5
0 -10 -11 -10 -25z"></path>
<path d="M540 3570 c0 -22 5 -40 10 -40 6 0 10 18 10 40 0 22 -4 40 -10 40 -5
0 -10 -18 -10 -40z"></path>
<path d="M1585 1208 c-3 -7 -18 -80 -33 -161 -24 -125 -27 -150 -15 -154 8 -3
18 -2 22 3 8 9 61 276 61 308 0 19 -28 22 -35 4z"></path>
<path d="M2903 1204 c-3 -9 -9 -30 -12 -48 -6 -27 -12 -32 -48 -36 -73 -10
-121 -57 -130 -127 -10 -79 34 -120 101 -95 22 9 32 9 37 1 18 -30 34 6 60
137 15 76 28 149 28 162 1 26 -26 31 -36 6z m-33 -148 c0 -43 -21 -96 -47
-116 -31 -24 -37 -25 -57 -4 -20 20 -20 47 1 91 27 57 103 78 103 29z"></path>
<path d="M5823 1205 c-12 -8 -27 -30 -33 -49 -6 -19 -17 -37 -25 -40 -18 -6
-20 -33 -3 -38 9 -3 7 -25 -5 -88 -11 -54 -14 -87 -7 -94 19 -19 38 16 49 92
12 82 15 88 46 94 27 5 26 32 -2 36 -16 2 -20 8 -16 20 10 28 35 52 52 50 8
-2 17 5 19 15 5 22 -44 24 -75 2z"></path>
<path d="M4371 1200 c-39 -9 -77 -36 -105 -73 -24 -33 -34 -142 -16 -176 19
-36 70 -61 125 -61 61 0 78 10 73 41 -3 21 -7 23 -49 21 -40 -3 -49 0 -68 24
-25 32 -27 64 -6 109 20 41 55 60 111 57 39 -1 44 1 50 24 4 14 5 26 3 28 -10
10 -88 13 -118 6z"></path>
<path d="M85 1178 c-29 -122 -54 -273 -46 -281 5 -5 19 -7 32 -5 21 3 25 12
40 88 8 47 18 92 20 100 3 8 18 -26 33 -75 15 -50 33 -96 39 -103 6 -7 24 -12
41 -10 30 3 30 3 52 113 12 61 25 129 29 153 l6 43 -33 -3 -33 -3 -15 -90 c-9
-49 -18 -85 -22 -80 -3 6 -18 47 -32 93 l-28 82 -39 0 c-32 0 -40 -4 -44 -22z"></path>
<path d="M767 1194 c-4 -4 -7 -16 -7 -26 0 -14 6 -19 23 -16 14 2 22 10 22 23
0 20 -25 32 -38 19z"></path>
<path d="M1760 1054 c-39 -81 -70 -151 -70 -156 0 -5 15 -8 33 -6 26 2 36 10
50 41 17 34 22 37 62 37 43 0 44 0 47 -37 3 -35 6 -38 36 -41 39 -4 38 -9 17
168 -8 69 -15 128 -15 133 0 4 -20 7 -45 7 l-46 0 -69 -146z m109 4 c1 -24 -3
-28 -25 -28 -14 0 -24 3 -22 8 2 4 10 24 18 45 12 31 16 35 21 20 4 -10 8 -30
8 -45z"></path>
<path d="M2996 1184 c-8 -21 1 -34 25 -34 14 0 19 7 19 25 0 29 -34 36 -44 9z"></path>
<path d="M3614 1185 c-8 -20 4 -35 27 -35 14 0 19 7 19 25 0 18 -5 25 -20 25
-11 0 -23 -7 -26 -15z"></path>
<path d="M5995 1188 c-12 -35 -54 -282 -49 -289 7 -12 51 -11 59 1 7 11 55
257 55 283 0 12 -8 17 -30 17 -17 0 -33 -6 -35 -12z"></path>
<path d="M637 1159 c-9 -6 -17 -17 -17 -24 0 -8 -6 -15 -14 -15 -20 0 -28 -28
-10 -38 13 -7 13 -18 2 -81 -14 -83 -6 -106 37 -106 34 0 45 20 15 28 -23 6
-25 36 -7 107 9 34 18 46 37 50 31 7 33 34 2 38 -17 3 -21 8 -17 22 7 23 -5
31 -28 19z"></path>
<path d="M3117 1159 c-9 -6 -17 -17 -17 -24 0 -8 -6 -15 -14 -15 -20 0 -26
-22 -10 -40 10 -13 11 -29 1 -83 -13 -79 -5 -102 38 -102 34 0 45 20 15 28
-23 6 -25 36 -7 107 9 34 18 46 37 50 31 7 33 34 2 38 -17 3 -21 8 -17 22 7
23 -5 31 -28 19z"></path>
<path d="M5008 1163 c-10 -2 -18 -11 -18 -20 0 -8 -9 -17 -20 -20 -21 -6 -28
-39 -9 -45 8 -3 7 -25 -2 -80 -15 -88 -7 -108 42 -108 34 0 40 25 9 35 -23 7
-23 10 -7 90 11 50 17 60 37 65 34 8 40 40 7 40 -20 0 -23 4 -19 25 2 14 3 24
1 24 -2 -1 -12 -3 -21 -6z"></path>
<path d="M3480 1145 c0 -8 -9 -19 -20 -25 -22 -12 -27 -36 -8 -42 9 -3 9 -21
0 -76 -15 -87 -6 -112 38 -112 34 0 40 19 11 37 -16 10 -18 18 -10 60 16 89
18 93 43 93 13 0 26 6 29 14 7 18 -1 26 -25 26 -11 0 -18 7 -18 20 0 13 -7 20
-20 20 -11 0 -20 -7 -20 -15z"></path>
<path d="M410 1097 c-44 -29 -71 -76 -73 -126 -3 -72 59 -105 116 -61 l25 20
5 -21 c8 -30 31 -18 35 17 1 16 9 62 17 102 8 41 12 78 9 83 -11 19 -100 10
-134 -14z m82 -52 c-6 -71 -58 -139 -90 -119 -42 27 -14 125 43 150 42 18 50
13 47 -31z"></path>
<path d="M756 1111 c-16 -25 -46 -205 -36 -215 19 -19 37 18 54 110 9 51 16
97 16 103 0 13 -27 15 -34 2z"></path>
<path d="M863 1087 c-31 -29 -37 -41 -41 -90 -4 -50 -2 -58 21 -81 51 -51 135
-25 169 51 52 117 -56 204 -149 120z m115 -61 c4 -43 -17 -82 -53 -98 -53 -24
-84 47 -49 113 32 63 96 53 102 -15z"></path>
<path d="M1085 1098 c-24 -112 -34 -193 -24 -202 16 -16 36 16 44 72 9 63 30
100 60 108 49 12 52 -7 29 -148 -5 -31 -4 -38 10 -38 20 0 29 23 46 113 11 59
10 70 -4 92 -19 29 -53 32 -96 10 -27 -14 -30 -14 -30 0 0 24 -29 18 -35 -7z"></path>
<path d="M1370 1102 c-66 -36 -101 -138 -64 -190 20 -28 76 -30 103 -3 19 19
19 19 24 0 3 -10 11 -19 19 -19 13 0 40 124 42 195 1 29 -1 30 -44 33 -30 2
-57 -4 -80 -16z m73 -60 c-3 -71 -48 -131 -87 -116 -50 19 -11 133 54 157 27
10 35 0 33 -41z"></path>
<path d="M2075 1111 c-74 -32 -110 -147 -60 -196 35 -36 125 -34 125 2 0 12
-8 14 -35 9 -27 -5 -39 -2 -55 14 -24 24 -25 39 -6 84 17 40 29 49 81 56 27 3
40 10 40 20 0 17 -58 24 -90 11z"></path>
<path d="M2246 1101 c-44 -29 -66 -70 -66 -123 0 -38 5 -50 26 -67 31 -24 96
-28 113 -7 15 18 -1 30 -30 21 -12 -4 -30 0 -46 10 -22 15 -25 22 -20 57 7 55
39 86 91 90 28 2 41 8 41 18 0 24 -74 25 -109 1z"></path>
<path d="M2405 1108 c-9 -29 -35 -172 -35 -195 0 -18 5 -24 17 -21 13 2 22 24
34 78 17 74 42 110 75 110 8 0 14 9 14 20 0 24 -32 27 -51 4 -11 -14 -13 -14
-21 0 -11 19 -27 21 -33 4z"></path>
<path d="M2566 1099 c-59 -46 -77 -146 -33 -187 35 -33 127 -29 127 5 0 12 -8
13 -39 8 -42 -7 -71 11 -71 44 0 15 10 19 50 23 58 6 90 30 90 68 0 57 -72 80
-124 39z m68 -15 c28 -11 18 -41 -15 -53 -18 -6 -38 -11 -45 -11 -23 0 -16 27
12 49 30 24 27 23 48 15z"></path>
<path d="M2985 1108 c-7 -21 -35 -183 -35 -202 0 -11 6 -16 18 -14 13 2 22 27
39 108 12 57 19 108 17 112 -8 13 -34 9 -39 -4z"></path>
<path d="M3270 1101 c-41 -21 -80 -89 -80 -138 0 -61 65 -94 117 -58 19 13 22
13 27 0 3 -8 12 -15 19 -15 10 0 19 31 31 105 9 58 14 110 11 115 -10 17 -88
11 -125 -9z m73 -17 c28 -10 -13 -133 -52 -154 -41 -22 -67 15 -50 72 12 44
37 69 86 87 1 1 8 -2 16 -5z"></path>
<path d="M3606 1108 c-12 -38 -39 -209 -33 -214 24 -24 50 52 71 210 2 15 -34
19 -38 4z"></path>
<path d="M3734 1101 c-56 -34 -79 -113 -49 -170 35 -68 139 -51 180 29 55 105
-34 200 -131 141z m86 -31 c24 -24 25 -48 6 -95 -38 -90 -136 -52 -106 41 11
31 52 74 71 74 5 0 18 -9 29 -20z"></path>
<path d="M3945 1108 c-3 -7 -14 -57 -24 -111 -16 -85 -16 -99 -4 -104 21 -8
29 5 42 72 13 71 38 109 75 113 36 5 40 -12 23 -102 -13 -68 -13 -78 0 -83 24
-9 31 7 44 99 12 81 12 89 -6 108 -20 22 -55 26 -87 9 -14 -8 -23 -8 -31 0
-14 14 -27 14 -32 -1z"></path>
<path d="M4554 1101 c-63 -38 -85 -141 -39 -186 26 -27 80 -34 116 -15 35 19
22 32 -25 25 -40 -6 -46 -5 -61 19 -21 31 -13 46 24 46 47 0 92 21 102 47 13
34 12 40 -11 63 -25 25 -66 26 -106 1z m74 -44 c-3 -21 -51 -41 -76 -32 -18 7
3 44 31 54 30 11 49 2 45 -22z"></path>
<path d="M4735 1110 c-13 -20 -42 -211 -33 -216 21 -13 36 7 42 60 9 67 42
120 78 124 35 4 38 -11 23 -99 -7 -41 -11 -77 -8 -81 9 -16 33 -7 38 15 31
137 32 168 7 190 -23 21 -61 22 -89 2 -19 -13 -22 -13 -27 0 -6 17 -22 20 -31
5z"></path>
<path d="M5137 1102 c-30 -19 -67 -85 -67 -121 0 -30 25 -77 45 -85 41 -15
115 -2 115 21 0 12 -8 14 -35 9 -45 -9 -75 7 -75 39 0 21 5 25 29 25 41 0 90
19 101 40 36 68 -41 117 -113 72z m73 -28 c11 -12 11 -18 -1 -29 -21 -21 -79
-31 -79 -14 0 19 11 34 35 47 26 15 30 15 45 -4z"></path>
<path d="M5317 1113 c-10 -16 -40 -213 -34 -219 17 -18 36 10 47 72 13 69 42
114 75 114 8 0 15 9 15 20 0 24 -32 27 -51 4 -11 -14 -13 -14 -21 0 -10 17
-24 21 -31 9z"></path>
<path d="M5564 1101 c-31 -19 -64 -82 -64 -122 0 -28 26 -75 45 -83 42 -16 86
-6 122 27 31 29 37 41 41 90 4 50 2 58 -21 81 -32 32 -79 34 -123 7z m86 -31
c24 -24 25 -48 6 -95 -13 -31 -41 -55 -65 -55 -22 0 -41 33 -41 71 0 31 7 47
29 70 35 34 44 36 71 9z"></path>
<path d="M6109 1118 c-11 -36 -35 -215 -29 -222 16 -16 29 5 41 65 12 61 48
119 74 119 19 0 27 30 11 36 -8 3 -24 0 -36 -6 -16 -9 -25 -9 -33 -1 -10 10
-26 15 -28 9z"></path>
<path d="M6291 1102 c-48 -24 -73 -62 -79 -122 -4 -39 -1 -55 13 -70 22 -24
62 -26 93 -4 22 15 24 15 36 -2 17 -23 36 -10 36 26 0 16 7 61 15 100 8 40 13
76 9 81 -9 15 -87 10 -123 -9z m74 -22 c4 -6 2 -33 -5 -59 -14 -60 -62 -111
-88 -95 -42 27 -16 120 42 148 37 19 43 19 51 6z"></path>
<path d="M6462 1013 c-11 -59 -18 -111 -16 -115 11 -18 34 -6 39 20 20 95 29
119 47 140 12 12 32 22 45 22 20 0 23 -5 23 -42 0 -24 -5 -63 -11 -87 -7 -31
-7 -47 1 -55 18 -18 36 17 50 99 11 66 11 77 -4 100 -19 29 -59 33 -93 10 -19
-13 -22 -13 -27 0 -3 8 -12 15 -20 15 -10 0 -20 -31 -34 -107z"></path>
<path d="M396 643 c-22 -35 -23 -44 -15 -118 4 -44 8 -128 8 -187 1 -61 5
-108 10 -108 6 0 22 16 37 35 l27 36 -7 147 c-8 170 -15 232 -27 232 -5 0 -19
-17 -33 -37z"></path>
<path d="M1006 647 l-25 -32 12 -193 c6 -105 15 -192 19 -192 4 0 19 17 32 37
l25 38 -9 175 c-5 96 -10 181 -10 188 0 21 -18 13 -44 -21z"></path>
<path d="M4113 626 c-18 -20 -33 -42 -33 -49 0 -7 7 -73 15 -147 8 -74 15
-141 15 -148 0 -7 11 -24 25 -37 23 -23 31 -25 132 -25 129 0 153 10 153 67 0
38 -31 113 -55 133 -12 10 -18 5 -32 -24 -16 -35 -16 -38 1 -67 l18 -30 -89 3
-88 3 -8 100 c-4 55 -11 136 -15 179 l-7 80 -32 -38z"></path>
<path d="M2532 627 c-19 -20 -22 -35 -23 -118 -1 -52 -4 -105 -8 -118 -6 -23
-8 -21 -20 20 -7 24 -22 61 -33 82 -21 42 -91 123 -119 138 -24 13 -49 -14
-49 -53 0 -41 45 -101 69 -93 24 7 67 -58 81 -122 15 -66 -4 -90 -101 -123
-41 -14 -74 -30 -74 -35 0 -6 39 -11 86 -13 81 -3 89 -1 118 24 18 14 38 39
47 55 18 36 30 37 38 4 11 -45 46 -58 138 -51 46 3 88 5 93 5 6 -1 102 -3 213
-6 241 -5 252 -2 252 73 0 53 -26 83 -96 110 -56 21 -73 16 -174 -51 -69 -46
-91 -55 -120 -53 -34 3 -35 5 -38 46 -2 23 -7 42 -11 42 -13 0 -49 -44 -53
-65 -3 -18 -12 -20 -77 -23 -53 -2 -77 1 -82 10 -5 7 -9 42 -9 78 0 102 -12
260 -20 260 -3 0 -16 -10 -28 -23z m596 -304 l37 -17 -43 -4 c-23 -2 -59 -2
-80 0 l-37 3 30 17 c38 22 47 22 93 1z"></path>
<path d="M4965 620 c-28 -29 -28 -30 -17 -97 6 -37 14 -103 18 -145 l7 -78
-56 0 c-105 0 -167 -42 -167 -113 0 -26 6 -37 26 -47 23 -13 24 -15 7 -21 -10
-4 -46 -8 -80 -8 -50 -1 -67 3 -83 19 -25 25 -25 46 -1 110 21 56 14 71 -16
37 -59 -64 -71 -154 -27 -206 34 -41 88 -55 160 -42 91 17 142 45 160 87 20
49 15 67 -24 78 -17 5 -32 13 -32 17 0 9 119 13 232 9 31 -1 66 3 78 10 16 8
34 8 73 0 67 -15 103 -3 112 38 13 62 -48 146 -101 140 -23 -2 -35 -13 -57
-55 l-28 -53 -58 0 -58 0 -6 107 c-4 58 -7 137 -7 175 0 78 -10 85 -55 38z
m295 -295 c17 -21 7 -29 -25 -21 -22 6 -25 9 -15 21 16 19 24 19 40 0z"></path>
<path d="M5961 601 c-118 -49 -161 -82 -161 -125 0 -27 52 -79 81 -81 11 -1
41 -23 67 -48 l47 -47 -115 0 -115 0 -25 41 c-38 61 -56 67 -77 25 -16 -35
-16 -35 16 -71 36 -41 33 -55 -20 -99 -39 -33 -74 -42 -118 -29 -20 6 -42 12
-50 14 -24 7 -22 -18 4 -49 55 -65 141 -63 207 5 19 21 41 48 47 61 11 21 17
22 146 22 152 0 181 7 191 47 7 25 -2 36 -94 124 -56 54 -102 99 -102 102 0 2
39 17 86 33 77 26 88 33 100 61 15 36 18 64 7 62 -5 -1 -59 -22 -122 -48z"></path>
<path d="M4225 530 l-15 -29 41 -21 c32 -17 43 -19 55 -9 11 9 20 9 41 0 24
-11 29 -10 45 11 24 31 23 33 -18 59 -30 18 -40 20 -56 10 -13 -8 -24 -8 -38
-1 -29 16 -38 12 -55 -20z"></path>
<path d="M5586 538 c-24 -33 -20 -43 24 -63 39 -18 41 -18 55 1 23 30 18 42
-24 64 l-40 20 -15 -22z"></path>
<path d="M125 493 c-17 -25 -17 -27 6 -44 38 -30 61 -34 76 -13 22 29 15 49
-22 67 -44 21 -39 22 -60 -10z"></path>
<path d="M1326 495 c-9 -13 -16 -26 -16 -29 0 -2 17 -14 37 -26 30 -18 41 -20
56 -10 15 9 24 8 42 -4 23 -15 25 -14 45 14 l21 29 -41 27 c-33 22 -42 24 -55
14 -12 -10 -21 -10 -41 -1 -32 14 -29 15 -48 -14z"></path>
<path d="M3520 458 c-25 -41 -25 -39 6 -100 29 -58 25 -67 -35 -75 -47 -6 -71
8 -64 37 7 27 -12 25 -31 -2 -20 -27 -21 -68 -3 -92 18 -24 102 -33 153 -15
28 9 99 12 251 11 205 -2 214 -1 234 19 18 18 20 28 15 63 -6 36 -49 126 -61
126 -3 0 -12 -14 -21 -31 -15 -30 -15 -43 1 -81 6 -16 -1 -18 -84 -18 l-91 0
0 50 c0 28 -4 50 -8 50 -5 0 -20 -12 -35 -28 -19 -20 -25 -34 -20 -50 5 -22 4
-23 -52 -20 l-58 3 -29 93 c-17 50 -34 92 -39 92 -5 0 -18 -15 -29 -32z"></path>
<path d="M863 395 c-16 -34 -16 -37 1 -65 l17 -30 -85 0 -84 0 -37 50 c-20 28
-41 50 -46 50 -6 0 -17 -16 -25 -36 -14 -35 -14 -36 16 -70 34 -40 31 -54 -21
-98 -41 -35 -73 -41 -131 -26 -27 6 -52 10 -55 6 -9 -8 24 -54 53 -72 35 -24
106 -21 149 6 19 12 47 42 61 66 l26 44 102 0 c119 0 146 12 146 63 0 34 -40
130 -59 141 -6 4 -18 -8 -28 -29z"></path>
<path d="M1920 410 c-27 -11 -65 -64 -56 -79 3 -4 23 -4 44 2 42 11 77 6 107
-17 18 -14 10 -15 -96 -16 l-116 0 -7 50 c-4 28 -10 50 -15 50 -19 0 -56 -53
-53 -76 3 -22 0 -24 -43 -24 -44 0 -46 1 -64 43 -10 23 -25 48 -33 54 -12 10
-17 7 -31 -23 -15 -31 -16 -37 -1 -58 22 -34 10 -38 -127 -44 -100 -4 -122 -2
-144 12 -24 16 -26 22 -20 57 4 22 3 39 -3 39 -18 0 -44 -40 -49 -77 -7 -50
23 -88 80 -104 48 -13 212 -6 267 11 23 8 142 11 343 10 l307 -1 11 25 c15 33
5 56 -24 56 -13 0 -44 14 -68 31 -24 16 -60 41 -80 55 -41 28 -93 38 -129 24z"></path>
<path d="M6523 386 c-10 -13 -26 -38 -35 -55 -16 -29 -21 -31 -72 -31 -51 0
-56 2 -75 33 -11 18 -29 41 -40 51 -18 17 -20 16 -35 -6 -22 -31 -20 -45 9
-80 33 -39 32 -54 -10 -94 -42 -39 -92 -51 -147 -35 -47 15 -55 10 -40 -23 24
-52 118 -74 180 -42 33 17 77 66 87 96 5 17 15 20 61 20 31 0 64 5 75 11 14 7
35 7 74 -2 47 -10 57 -10 79 5 20 12 26 25 26 52 0 95 -91 161 -137 100z m67
-66 c11 -21 -1 -27 -34 -14 -13 5 -14 9 -5 20 16 19 26 18 39 -6z"></path>
<path d="M270 340 l-22 -30 22 -45 c12 -24 20 -52 18 -62 -4 -23 -80 -52 -138
-52 -86 -1 -109 41 -71 126 18 39 18 53 -1 53 -5 0 -22 -21 -38 -47 -34 -54
-41 -133 -15 -170 50 -71 257 -46 300 36 34 66 27 168 -14 205 -18 16 -20 16
-41 -14z"></path>
<path d="M776 155 c-9 -13 -16 -26 -16 -29 0 -2 17 -14 37 -26 30 -17 41 -20
55 -11 13 8 24 8 38 1 28 -15 34 -13 52 18 l17 29 -40 22 c-32 18 -43 20 -55
10 -11 -9 -20 -9 -40 0 -32 14 -29 15 -48 -14z"></path>
<path d="M3871 154 c-14 -31 -5 -46 39 -64 23 -9 33 -10 44 -1 10 9 20 9 40 0
23 -11 28 -10 41 7 21 28 15 43 -28 68 -32 18 -39 19 -46 7 -8 -12 -14 -13
-36 -3 -36 17 -40 16 -54 -14z"></path>
<path d="M1675 140 l-15 -29 41 -22 c33 -16 43 -18 50 -8 6 10 13 10 34 1 33
-15 30 -16 49 13 16 24 15 25 -25 52 -38 25 -42 26 -51 9 -9 -16 -12 -16 -33
-2 -32 21 -32 21 -50 -14z"></path>
<path d="M3675 140 l-15 -29 38 -20 c26 -13 42 -17 49 -10 7 7 19 6 37 -2 23
-11 28 -10 41 7 22 29 18 40 -22 64 -32 19 -37 20 -45 6 -8 -14 -12 -14 -38
-1 -29 15 -30 14 -45 -15z"></path>
</g>
</svg>